;Layer: Drill PTH
;EasyEDA v5.9.42, Mon, 25 Mar 2019 10:54:48 GMT
;64f0bed4ef7340cbb712f4c35e6e27d8
;Gerber Generator version 0.2
M48
INCH,LZ,00.0000
;Holesize 1 = 0.012 INCH
T01C0.012
;Holesize 2 = 0.020 INCH
T02C0.020
;Holesize 3 = 0.024 INCH
T03C0.024
;Holesize 4 = 0.035 INCH
T04C0.035
;Holesize 5 = 0.040 INCH
T05C0.040
;Holesize 6 = 0.040 INCH
T06C0.040
;Holesize 7 = 0.043 INCH
T07C0.043
;Holesize 8 = 0.043 INCH
T08C0.043
;Holesize 9 = 0.044 INCH
T09C0.044
;Holesize 10 = 0.051 INCH
T10C0.051
%
G05
G90
T01
X+023950Y+016150
X+024450Y+016150
X+024950Y+016150
X+025450Y+016150
X+023950Y+015650
X+024500Y+015600
X+025000Y+015600
X+026000Y+015100
X+026000Y+014600
X+026000Y+014100
X+025500Y+014100
X+025000Y+014100
X+024500Y+014100
X+023950Y+015150
X+024950Y+014650
X+025450Y+014650
X+020000Y+020100
X+021950Y+018150
X+021950Y+016150
X+023950Y+018150
X+026000Y+018150
X+028000Y+018150
X+028000Y+016150
X+028000Y+014100
X+028000Y+012100
X+026000Y+012100
X+023950Y+012100
X+021950Y+012100
X+021950Y+014100
X+020000Y+019600
X+021950Y+017150
X+022950Y+018150
X+025000Y+018150
X+027000Y+018150
X+021950Y+015600
X+021950Y+013100
X+022950Y+012100
X+024950Y+012100
X+027025Y+012075
X+028000Y+013100
X+028000Y+015100
X+028000Y+017150
X+002250Y+013050
X+003250Y+013050
X+001850Y+009400
X+002650Y+009400
X+005000Y+027350
X+002000Y+024400
X+031300Y+007800
X+031300Y+006800
X+031300Y+005850
X+034650Y+006450
X+034650Y+005450
X+034625Y+004475
X+013000Y+025600
X+016000Y+019600
X+011950Y+026650
X+010950Y+025650
X+021723Y+020207
X+024094Y+020488
X+020472Y+020984
X+023903Y+020151
X+020264Y+021459
X+024723Y+020205
X+019638Y+022067
X+019618Y+019052
X+021435Y+017625
X+025702Y+020265
X+019546Y+022388
X+026723Y+020198
X+028475Y+017169
X+027710Y+020507
X+028406Y+020155
X+028864Y+020201
X+024943Y+019138
X+028503Y+016632
X+028514Y+019628
X+030056Y+019625
X+035438Y+022571
X+021430Y+016626
X+031535Y+018876
X+013268Y+018171
X+022227Y+017876
X+018671Y+021667
X+014588Y+016376
X+015410Y+016046
X+028989Y+016609
X+015017Y+015117
X+022207Y+015134
X+022772Y+016276
X+015131Y+023498
X+014352Y+015376
X+020959Y+015140
X+035952Y+015338
X+016077Y+014630
X+023165Y+015880
X+018790Y+014125
X+013568Y+022675
X+021475Y+014096
X+017893Y+020003
X+028490Y+013642
X+015213Y+013376
X+015471Y+013625
X+020988Y+013138
X+023435Y+014676
X+019896Y+013003
X+034431Y+012625
X+032443Y+012876
X+023681Y+015392
X+020446Y+011109
X+021935Y+010621
X+020726Y+010051
X+029656Y+010042
T02
X+001855Y+009900
X+002643Y+009900
T03
X+005000Y+025101G85X+005000Y+025098
X+005000Y+028101G85X+005000Y+028098
X+002000Y+028101G85X+002000Y+028098
X+002000Y+025101G85X+002000Y+025098
T04
X+036500Y+024600
X+037500Y+024600
X+036500Y+023600
X+037500Y+023600
X+036500Y+022600
X+037500Y+022600
X+036500Y+021600
X+037500Y+021600
X+036500Y+020600
X+037500Y+020600
X+036500Y+019600
X+037500Y+019600
X+036500Y+018600
X+037500Y+018600
X+036500Y+017600
X+037500Y+017600
X+036500Y+016600
X+037500Y+016600
X+036500Y+015600
X+037500Y+015600
X+036500Y+014600
X+037500Y+014600
X+036500Y+013600
X+037500Y+013600
X+036500Y+012600
X+037500Y+012600
X+036500Y+011600
X+037500Y+011600
X+036500Y+010600
X+037500Y+010600
X+036500Y+009600
X+037500Y+009600
X+036500Y+008600
X+037500Y+008600
X+036500Y+007600
X+037500Y+007600
X+036500Y+006600
X+037500Y+006600
X+036500Y+005600
X+037500Y+005600
X+016500Y+002600
X+016500Y+003600
X+017500Y+002600
X+017500Y+003600
X+018500Y+002600
X+018500Y+003600
X+019500Y+002600
X+019500Y+003600
X+020500Y+002600
X+020500Y+003600
X+021500Y+002600
X+021500Y+003600
X+022500Y+002600
X+022500Y+003600
X+023500Y+002600
X+023500Y+003600
X+024500Y+002600
X+024500Y+003600
X+025500Y+002600
X+025500Y+003600
X+026500Y+002600
X+026500Y+003600
X+027500Y+002600
X+027500Y+003600
X+028500Y+002600
X+028500Y+003600
X+029500Y+002600
X+029500Y+003600
X+030500Y+002600
X+030500Y+003600
X+031500Y+002600
X+031500Y+003600
X+014500Y+029100
X+015500Y+029100
X+016500Y+029100
X+017500Y+029100
X+018500Y+029100
X+019500Y+029100
X+039000Y+005600
X+039000Y+006600
X+039000Y+007600
X+039000Y+008600
X+039000Y+009600
X+039000Y+010600
X+039000Y+011600
X+039000Y+012600
X+039000Y+013600
X+039000Y+014600
X+039000Y+015600
X+039000Y+016600
X+039000Y+017600
X+039000Y+018600
X+039000Y+019600
X+039000Y+020600
X+039000Y+021600
X+039000Y+022600
X+039000Y+023600
X+039000Y+024600
X+033500Y+001100
X+032500Y+001100
X+031500Y+001100
X+030500Y+001100
X+029500Y+001100
X+028500Y+001100
X+027500Y+001100
X+026500Y+001100
X+025500Y+001100
X+024500Y+001100
X+023500Y+001100
X+022500Y+001100
X+021500Y+001100
X+020500Y+001100
X+019500Y+001100
X+018500Y+001100
X+017500Y+001100
X+016500Y+001100
X+015500Y+001100
X+014500Y+001100
X+034000Y+007100
X+033000Y+007100
X+032000Y+007100
X+034000Y+006100
X+033000Y+006100
X+032000Y+006100
X+034000Y+005100
X+033000Y+005100
X+032000Y+005100
T05
X+007450Y+027100
X+008550Y+027100
X+007450Y+025100
X+008550Y+025100
X+007450Y+023100
X+008550Y+023100
X+007450Y+021100
X+008550Y+021100
X+007450Y+019100
X+008550Y+019100
X+007450Y+017100
X+008550Y+017100
X+007450Y+015100
X+008550Y+015100
X+007450Y+013100
X+008550Y+013100
X+007450Y+011100
X+008550Y+011100
X+007450Y+009100
X+008550Y+009100
X+007450Y+007100
X+008550Y+007100
X+007450Y+005100
X+008550Y+005100
X+007450Y+003100
X+008550Y+003100
X+004450Y+010100
X+005550Y+010100
T06
X+023000Y+029100
X+024000Y+029100
X+025000Y+029100
X+026000Y+029100
X+027000Y+029100
X+028000Y+029100
X+029000Y+029100
X+030000Y+029100
X+031000Y+029100
X+032000Y+029100
X+033000Y+029100
X+034000Y+029100
X+035000Y+029100
X+036000Y+029100
X+037000Y+029100
X+011000Y+018100
X+011000Y+017100
X+011000Y+016100
X+011000Y+015100
X+011000Y+014100
X+011000Y+013100
X+011000Y+012100
X+011000Y+011100
X+011000Y+010100
X+011000Y+009100
X+011000Y+008100
X+011000Y+007100
X+011000Y+006100
X+011000Y+005100
X+011000Y+004100
T07
X+011500Y+025100G85X+011500Y+025100
X+012500Y+025100G85X+012500Y+025100
X+011500Y+024100G85X+011500Y+024100
X+012500Y+024100G85X+012500Y+024100
X+011500Y+023100G85X+011500Y+023100
X+012500Y+023100G85X+012500Y+023100
X+011500Y+022100G85X+011500Y+022100
X+012500Y+022100G85X+012500Y+022100
X+011500Y+021100G85X+011500Y+021100
X+012500Y+020100G85X+012500Y+020100
X+012500Y+021100G85X+012500Y+021100
X+013500Y+020100G85X+013500Y+020100
X+013500Y+021100G85X+013500Y+021100
X+014500Y+020100G85X+014500Y+020100
X+014500Y+021100G85X+014500Y+021100
X+015500Y+020100G85X+015500Y+020100
X+016500Y+021100G85X+016500Y+021100
X+015500Y+021100G85X+015500Y+021100
X+016500Y+022100G85X+016500Y+022100
X+015500Y+022100G85X+015500Y+022100
X+016500Y+023100G85X+016500Y+023100
X+015500Y+023100G85X+015500Y+023100
X+016500Y+024100G85X+016500Y+024100
X+015500Y+024100G85X+015500Y+024100
X+016500Y+025100G85X+016500Y+025100
X+015500Y+026100G85X+015500Y+026100
X+015500Y+025100G85X+015500Y+025100
X+014500Y+026100G85X+014500Y+026100
X+014500Y+025100G85X+014500Y+025100
X+013500Y+026100G85X+013500Y+026100
X+013500Y+025100G85X+013500Y+025100
X+012500Y+026100G85X+012500Y+026100
T08
X+012500Y+017600
X+013500Y+017600
X+012500Y+016600
X+013500Y+016600
X+012500Y+015600
X+013500Y+015600
X+012500Y+014600
X+013500Y+014600
X+012500Y+013600
X+013500Y+013600
X+012500Y+012600
X+013500Y+012600
X+012500Y+011600
X+013500Y+011600
X+012500Y+010600
X+013500Y+010600
X+012500Y+009600
X+013500Y+009600
X+012500Y+008600
X+013500Y+008600
X+012500Y+007600
X+013500Y+007600
X+012500Y+006600
X+013500Y+006600
X+012500Y+005600
X+013500Y+005600
X+012500Y+004600
X+013500Y+004600
X+023500Y+026600
X+023500Y+027600
X+024500Y+026600
X+024500Y+027600
X+025500Y+026600
X+025500Y+027600
X+026500Y+026600
X+026500Y+027600
X+027500Y+026600
X+027500Y+027600
X+028500Y+026600
X+028500Y+027600
X+029500Y+026600
X+029500Y+027600
X+030500Y+026600
X+030500Y+027600
X+031500Y+026600
X+031500Y+027600
X+032500Y+026600
X+032500Y+027600
X+033500Y+026600
X+033500Y+027600
X+034500Y+026600
X+034500Y+027600
X+035500Y+026600
X+035500Y+027600
X+036500Y+026600
X+036500Y+027600
T09
X+002250Y+013899
X+003250Y+013899
X+004250Y+013899
T10
X+002500Y+006100
X+003500Y+006100
M30
