G04 Layer: BottomLayer*
G04 EasyEDA v5.9.42, Mon, 25 Mar 2019 10:54:48 GMT*
G04 64f0bed4ef7340cbb712f4c35e6e27d8*
G04 Gerber Generator version 0.2*
G04 Scale: 100 percent, Rotated: No, Reflected: No *
G04 Dimensions in inches *
G04 leading zeros omitted , absolute positions ,2 integer and 4 decimal *
%FSLAX24Y24*%
%MOIN*%
G90*
G70D02*

%ADD11C,0.008000*%
%ADD12C,0.024400*%
%ADD13C,0.024000*%
%ADD14C,0.080000*%
%ADD15R,0.062000X0.062000*%
%ADD16C,0.062000*%
%ADD17R,0.059700X0.107500*%
%ADD18R,0.039370X0.039370*%
%ADD19C,0.039370*%
%ADD20R,0.074803X0.074803*%
%ADD21C,0.074803*%
%ADD22C,0.059050*%
%ADD23C,0.064960*%
%ADD24R,0.066929X0.066929*%
%ADD25C,0.066929*%

%LPD*%
G54D11*
G01X16500Y29100D02*
G01X19305Y26294D01*
G01X19305Y22059D01*
G01X20172Y21192D01*
G01X20339Y21192D01*
G01X20372Y21226D01*
G01X20706Y21226D01*
G01X21723Y20207D01*
G01X20472Y20984D02*
G01X20572Y20984D01*
G01X21692Y19863D01*
G01X23963Y19863D01*
G01X24194Y20096D01*
G01X24194Y20388D01*
G01X24094Y20488D01*
G01X23903Y20151D02*
G01X22596Y21459D01*
G01X20264Y21459D01*
G01X19638Y22067D02*
G01X22861Y22067D01*
G01X24723Y20205D01*
G01X21435Y17625D02*
G01X20259Y18802D01*
G01X19868Y18802D01*
G01X19618Y19052D01*
G01X25702Y20265D02*
G01X23580Y22388D01*
G01X19546Y22388D01*
G01X28500Y27600D02*
G01X28000Y27100D01*
G01X28000Y21473D01*
G01X26723Y20198D01*
G01X29500Y27600D02*
G01X29000Y27100D01*
G01X29000Y21446D01*
G01X27727Y20173D01*
G01X27727Y17917D01*
G01X28475Y17169D01*
G01X27710Y20507D02*
G01X24700Y17496D01*
G01X24700Y16038D01*
G01X24543Y15882D01*
G01X24377Y15882D01*
G01X24193Y15698D01*
G01X24193Y14990D01*
G01X23600Y14398D01*
G01X23343Y14398D01*
G01X23089Y14653D01*
G01X23089Y15609D01*
G01X20057Y18640D01*
G01X19689Y18640D01*
G01X18982Y19346D01*
G01X18982Y20559D01*
G01X16500Y23042D01*
G01X16500Y23100D01*
G01X30500Y27600D02*
G01X30013Y27113D01*
G01X30013Y21763D01*
G01X28406Y20155D01*
G01X31500Y27600D02*
G01X31000Y27100D01*
G01X31000Y22334D01*
G01X28864Y20201D01*
G01X5000Y25100D02*
G01X6039Y26140D01*
G01X11810Y26140D01*
G01X12640Y26971D01*
G01X15777Y26971D01*
G01X19082Y23663D01*
G01X19082Y22053D01*
G01X20197Y20938D01*
G01X20197Y20917D01*
G01X21310Y19803D01*
G01X21523Y19803D01*
G01X22189Y19138D01*
G01X24943Y19138D01*
G01X28503Y16632D02*
G01X28739Y16867D01*
G01X28739Y19019D01*
G01X28263Y19494D01*
G01X28263Y19767D01*
G01X28385Y19890D01*
G01X28894Y19890D01*
G01X32500Y23494D01*
G01X32500Y26600D01*
G01X35500Y26600D02*
G01X35043Y27055D01*
G01X33289Y27055D01*
G01X33000Y26765D01*
G01X33000Y23765D01*
G01X28863Y19628D01*
G01X28514Y19628D01*
G01X36500Y26600D02*
G01X36500Y26069D01*
G01X30056Y19625D01*
G01X36500Y23600D02*
G01X36467Y23600D01*
G01X35438Y22571D01*
G01X21430Y16626D02*
G01X21247Y16626D01*
G01X18660Y19213D01*
G01X18660Y19582D01*
G01X16697Y21546D01*
G01X16053Y21546D01*
G01X15500Y22100D01*
G01X37500Y22600D02*
G01X37068Y22169D01*
G01X34830Y22169D01*
G01X31535Y18876D01*
G01X12500Y17600D02*
G01X12956Y17600D01*
G01X12956Y17600D02*
G01X12956Y17859D01*
G01X13268Y18171D01*
G01X22227Y17876D02*
G01X22227Y18225D01*
G01X21131Y19319D01*
G01X20902Y19319D01*
G01X20367Y19857D01*
G01X19898Y19857D01*
G01X19756Y19998D01*
G01X19756Y20582D01*
G01X18671Y21667D01*
G01X12500Y16600D02*
G01X12973Y16126D01*
G01X14338Y16126D01*
G01X14588Y16376D01*
G01X13500Y14600D02*
G01X13964Y14600D01*
G01X15410Y16046D01*
G01X36500Y17600D02*
G01X29980Y17600D01*
G01X28989Y16609D01*
G01X13500Y13600D02*
G01X15017Y15117D01*
G01X11500Y22100D02*
G01X12000Y21600D01*
G01X12000Y19946D01*
G01X12535Y19411D01*
G01X13360Y19411D01*
G01X16618Y16153D01*
G01X16618Y15476D01*
G01X19703Y12392D01*
G01X20655Y12392D01*
G01X22207Y13946D01*
G01X22207Y15134D01*
G01X22772Y16276D02*
G01X22772Y16715D01*
G01X20523Y18963D01*
G01X20048Y18963D01*
G01X19339Y19671D01*
G01X19339Y20430D01*
G01X18268Y21501D01*
G01X18268Y21973D01*
G01X16586Y23653D01*
G01X16231Y23653D01*
G01X16053Y23830D01*
G01X16053Y24198D01*
G01X15652Y24600D01*
G01X15355Y24600D01*
G01X15051Y24296D01*
G01X15051Y23578D01*
G01X15131Y23498D01*
G01X12500Y14600D02*
G01X13027Y15126D01*
G01X14103Y15126D01*
G01X14352Y15376D01*
G01X12500Y23100D02*
G01X13000Y22600D01*
G01X13000Y19890D01*
G01X13318Y19573D01*
G01X13427Y19573D01*
G01X18459Y14540D01*
G01X18459Y13865D01*
G01X19771Y12553D01*
G01X20031Y12553D01*
G01X20959Y13480D01*
G01X20959Y15140D01*
G01X37500Y15600D02*
G01X37068Y15169D01*
G01X36122Y15169D01*
G01X35952Y15338D01*
G01X16077Y14630D02*
G01X16077Y16186D01*
G01X13335Y18927D01*
G01X12561Y18927D01*
G01X10868Y20621D01*
G01X10868Y22467D01*
G01X11500Y23100D01*
G01X23165Y15880D02*
G01X23165Y16548D01*
G01X20532Y19182D01*
G01X20057Y19182D01*
G01X19596Y19644D01*
G01X19596Y20402D01*
G01X18430Y21567D01*
G01X18430Y22865D01*
G01X16696Y24600D01*
G01X16000Y24600D01*
G01X15500Y25100D01*
G01X13568Y22675D02*
G01X14002Y22242D01*
G01X14002Y20944D01*
G01X14293Y20653D01*
G01X14589Y20653D01*
G01X15000Y20242D01*
G01X15000Y19630D01*
G01X18790Y15838D01*
G01X18790Y14125D01*
G01X21475Y14096D02*
G01X21475Y15871D01*
G01X17893Y19455D01*
G01X17893Y20003D01*
G01X33000Y5100D02*
G01X32431Y5669D01*
G01X31580Y5669D01*
G01X31556Y5692D01*
G01X31556Y10576D01*
G01X28490Y13642D01*
G01X12500Y10600D02*
G01X13000Y11100D01*
G01X13717Y11100D01*
G01X15213Y12596D01*
G01X15213Y13376D01*
G01X13500Y12600D02*
G01X14526Y13625D01*
G01X15471Y13625D01*
G01X20988Y13138D02*
G01X21234Y13384D01*
G01X21234Y15209D01*
G01X21027Y15415D01*
G01X20892Y15415D01*
G01X20289Y14811D01*
G01X20289Y13038D01*
G01X19964Y12715D01*
G01X19838Y12715D01*
G01X19105Y13446D01*
G01X19105Y17215D01*
G01X15721Y20600D01*
G01X15327Y20600D01*
G01X15022Y20903D01*
G01X15022Y21578D01*
G01X12500Y24100D01*
G01X23435Y14676D02*
G01X23435Y17244D01*
G01X21197Y19482D01*
G01X21177Y19482D01*
G01X19875Y20784D01*
G01X19875Y20805D01*
G01X18618Y22061D01*
G01X18618Y23636D01*
G01X15672Y26582D01*
G01X14982Y26582D01*
G01X14500Y26100D01*
G01X19896Y13003D02*
G01X19896Y16653D01*
G01X16039Y20509D01*
G01X16039Y21192D01*
G01X15577Y21653D01*
G01X15251Y21653D01*
G01X14889Y22015D01*
G01X14889Y24532D01*
G01X15051Y24692D01*
G01X15051Y25292D01*
G01X15346Y25588D01*
G01X16011Y25588D01*
G01X16500Y25100D01*
G01X36500Y10600D02*
G01X34475Y12625D01*
G01X34431Y12625D01*
G01X33000Y6100D02*
G01X32443Y6657D01*
G01X32443Y12876D01*
G01X14500Y25100D02*
G01X14010Y25588D01*
G01X14010Y26259D01*
G01X14560Y26809D01*
G01X15710Y26809D01*
G01X18922Y23596D01*
G01X18922Y21986D01*
G01X20035Y20871D01*
G01X20035Y20851D01*
G01X21243Y19642D01*
G01X21376Y19642D01*
G01X22130Y18890D01*
G01X22614Y18890D01*
G01X23681Y17823D01*
G01X23681Y15392D01*
G01X20446Y11109D02*
G01X19215Y11109D01*
G01X15835Y14490D01*
G01X15835Y16198D01*
G01X13268Y18765D01*
G01X12496Y18765D01*
G01X10706Y20555D01*
G01X10706Y23307D01*
G01X11500Y24100D01*
G01X21935Y10621D02*
G01X19406Y10621D01*
G01X15665Y14363D01*
G01X15665Y16140D01*
G01X13289Y18517D01*
G01X12517Y18517D01*
G01X10546Y20488D01*
G01X10546Y23828D01*
G01X11318Y24600D01*
G01X11681Y24600D01*
G01X12000Y24917D01*
G01X12000Y25263D01*
G01X12281Y25546D01*
G01X12589Y25546D01*
G01X13143Y26100D01*
G01X13500Y26100D01*
G01X12500Y25100D02*
G01X11946Y24546D01*
G01X11946Y22882D01*
G01X11664Y22600D01*
G01X11273Y22600D01*
G01X11028Y22355D01*
G01X11028Y20688D01*
G01X12628Y19088D01*
G01X13455Y19088D01*
G01X16401Y16144D01*
G01X16401Y15442D01*
G01X19985Y11857D01*
G01X21042Y11857D01*
G01X22209Y10690D01*
G01X22209Y10536D01*
G01X21725Y10051D01*
G01X20726Y10051D01*
G01X29656Y10042D02*
G01X29656Y10378D01*
G01X28630Y11403D01*
G01X26060Y11403D01*
G01X22723Y14740D01*
G01X22723Y15746D01*
G01X19990Y18478D01*
G01X19622Y18478D01*
G01X18822Y19280D01*
G01X18822Y20413D01*
G01X16689Y22546D01*
G01X16053Y22546D01*
G01X15500Y23100D01*
G54D14*
G01X7450Y27100D03*
G01X8550Y27100D03*
G01X7450Y25100D03*
G01X8550Y25100D03*
G01X7450Y23100D03*
G01X8550Y23100D03*
G01X7450Y21100D03*
G01X8550Y21100D03*
G01X7450Y19100D03*
G01X8550Y19100D03*
G01X7450Y17100D03*
G01X8550Y17100D03*
G01X7450Y15100D03*
G01X8550Y15100D03*
G01X7450Y13100D03*
G01X8550Y13100D03*
G01X7450Y11100D03*
G01X8550Y11100D03*
G01X7450Y9100D03*
G01X8550Y9100D03*
G01X7450Y7100D03*
G01X8550Y7100D03*
G01X7450Y5100D03*
G01X8550Y5100D03*
G01X7450Y3100D03*
G01X8550Y3100D03*
G54D15*
G01X36500Y24600D03*
G54D16*
G01X37500Y24600D03*
G01X36500Y23600D03*
G01X37500Y23600D03*
G01X36500Y22600D03*
G01X37500Y22600D03*
G01X36500Y21600D03*
G01X37500Y21600D03*
G01X36500Y20600D03*
G01X37500Y20600D03*
G01X36500Y19600D03*
G01X37500Y19600D03*
G01X36500Y18600D03*
G01X37500Y18600D03*
G01X36500Y17600D03*
G01X37500Y17600D03*
G01X36500Y16600D03*
G01X37500Y16600D03*
G01X36500Y15600D03*
G01X37500Y15600D03*
G01X36500Y14600D03*
G01X37500Y14600D03*
G01X36500Y13600D03*
G01X37500Y13600D03*
G01X36500Y12600D03*
G01X37500Y12600D03*
G01X36500Y11600D03*
G01X37500Y11600D03*
G01X36500Y10600D03*
G01X37500Y10600D03*
G01X36500Y9600D03*
G01X37500Y9600D03*
G01X36500Y8600D03*
G01X37500Y8600D03*
G01X36500Y7600D03*
G01X37500Y7600D03*
G01X36500Y6600D03*
G01X37500Y6600D03*
G01X36500Y5600D03*
G01X37500Y5600D03*
G54D15*
G01X16500Y2600D03*
G54D16*
G01X16500Y3600D03*
G01X17500Y2600D03*
G01X17500Y3600D03*
G01X18500Y2600D03*
G01X18500Y3600D03*
G01X19500Y2600D03*
G01X19500Y3600D03*
G01X20500Y2600D03*
G01X20500Y3600D03*
G01X21500Y2600D03*
G01X21500Y3600D03*
G01X22500Y2600D03*
G01X22500Y3600D03*
G01X23500Y2600D03*
G01X23500Y3600D03*
G01X24500Y2600D03*
G01X24500Y3600D03*
G01X25500Y2600D03*
G01X25500Y3600D03*
G01X26500Y2600D03*
G01X26500Y3600D03*
G01X27500Y2600D03*
G01X27500Y3600D03*
G01X28500Y2600D03*
G01X28500Y3600D03*
G01X29500Y2600D03*
G01X29500Y3600D03*
G01X30500Y2600D03*
G01X30500Y3600D03*
G01X31500Y2600D03*
G01X31500Y3600D03*
G54D17*
G01X2250Y13899D03*
G01X3250Y13899D03*
G01X4250Y13899D03*
G54D18*
G01X1855Y9900D03*
G54D19*
G01X2643Y9900D03*
G54D14*
G01X4450Y10100D03*
G01X5550Y10100D03*
G54D16*
G01X14500Y29100D03*
G01X15500Y29100D03*
G01X16500Y29100D03*
G01X17500Y29100D03*
G01X18500Y29100D03*
G54D15*
G01X19500Y29100D03*
G54D20*
G01X2500Y6100D03*
G54D21*
G01X3500Y6100D03*
G54D16*
G01X39000Y5600D03*
G01X39000Y6600D03*
G01X39000Y7600D03*
G01X39000Y8600D03*
G01X39000Y9600D03*
G01X39000Y10600D03*
G01X39000Y11600D03*
G01X39000Y12600D03*
G01X39000Y13600D03*
G01X39000Y14600D03*
G01X39000Y15600D03*
G01X39000Y16600D03*
G01X39000Y17600D03*
G01X39000Y18600D03*
G01X39000Y19600D03*
G01X39000Y20600D03*
G01X39000Y21600D03*
G01X39000Y22600D03*
G01X39000Y23600D03*
G54D15*
G01X39000Y24600D03*
G54D16*
G01X33500Y1100D03*
G01X32500Y1100D03*
G01X31500Y1100D03*
G01X30500Y1100D03*
G01X29500Y1100D03*
G01X28500Y1100D03*
G01X27500Y1100D03*
G01X26500Y1100D03*
G01X25500Y1100D03*
G01X24500Y1100D03*
G01X23500Y1100D03*
G01X22500Y1100D03*
G01X21500Y1100D03*
G01X20500Y1100D03*
G01X19500Y1100D03*
G01X18500Y1100D03*
G01X17500Y1100D03*
G01X16500Y1100D03*
G01X15500Y1100D03*
G54D15*
G01X14500Y1100D03*
G54D22*
G01X5000Y25100D03*
G01X5000Y28100D03*
G01X2000Y28100D03*
G01X2000Y25100D03*
G54D16*
G01X34000Y7100D03*
G01X33000Y7100D03*
G54D15*
G01X32000Y7100D03*
G54D16*
G01X34000Y6100D03*
G01X33000Y6100D03*
G54D15*
G01X32000Y6100D03*
G54D16*
G01X34000Y5100D03*
G01X33000Y5100D03*
G54D15*
G01X32000Y5100D03*
G54D23*
G01X11500Y25100D03*
G01X12500Y25100D03*
G01X11500Y24100D03*
G01X12500Y24100D03*
G01X11500Y23100D03*
G01X12500Y23100D03*
G01X11500Y22100D03*
G01X12500Y22100D03*
G01X11500Y21100D03*
G01X12500Y20100D03*
G01X12500Y21100D03*
G01X13500Y20100D03*
G01X13500Y21100D03*
G01X14500Y20100D03*
G01X14500Y21100D03*
G01X15500Y20100D03*
G01X16500Y21100D03*
G01X15500Y21100D03*
G01X16500Y22100D03*
G01X15500Y22100D03*
G01X16500Y23100D03*
G01X15500Y23100D03*
G01X16500Y24100D03*
G01X15500Y24100D03*
G01X16500Y25100D03*
G01X15500Y26100D03*
G01X15500Y25100D03*
G01X14500Y26100D03*
G01X14500Y25100D03*
G01X13500Y26100D03*
G01X13500Y25100D03*
G01X12500Y26100D03*
G54D24*
G01X12500Y17600D03*
G54D25*
G01X13500Y17600D03*
G01X12500Y16600D03*
G01X13500Y16600D03*
G01X12500Y15600D03*
G01X13500Y15600D03*
G01X12500Y14600D03*
G01X13500Y14600D03*
G01X12500Y13600D03*
G01X13500Y13600D03*
G01X12500Y12600D03*
G01X13500Y12600D03*
G01X12500Y11600D03*
G01X13500Y11600D03*
G01X12500Y10600D03*
G01X13500Y10600D03*
G01X12500Y9600D03*
G01X13500Y9600D03*
G01X12500Y8600D03*
G01X13500Y8600D03*
G01X12500Y7600D03*
G01X13500Y7600D03*
G01X12500Y6600D03*
G01X13500Y6600D03*
G01X12500Y5600D03*
G01X13500Y5600D03*
G01X12500Y4600D03*
G01X13500Y4600D03*
G54D24*
G01X23500Y26600D03*
G54D25*
G01X23500Y27600D03*
G01X24500Y26600D03*
G01X24500Y27600D03*
G01X25500Y26600D03*
G01X25500Y27600D03*
G01X26500Y26600D03*
G01X26500Y27600D03*
G01X27500Y26600D03*
G01X27500Y27600D03*
G01X28500Y26600D03*
G01X28500Y27600D03*
G01X29500Y26600D03*
G01X29500Y27600D03*
G01X30500Y26600D03*
G01X30500Y27600D03*
G01X31500Y26600D03*
G01X31500Y27600D03*
G01X32500Y26600D03*
G01X32500Y27600D03*
G01X33500Y26600D03*
G01X33500Y27600D03*
G01X34500Y26600D03*
G01X34500Y27600D03*
G01X35500Y26600D03*
G01X35500Y27600D03*
G01X36500Y26600D03*
G01X36500Y27600D03*
G54D24*
G01X23000Y29100D03*
G54D25*
G01X24000Y29100D03*
G01X25000Y29100D03*
G01X26000Y29100D03*
G01X27000Y29100D03*
G01X28000Y29100D03*
G01X29000Y29100D03*
G01X30000Y29100D03*
G01X31000Y29100D03*
G01X32000Y29100D03*
G01X33000Y29100D03*
G01X34000Y29100D03*
G01X35000Y29100D03*
G01X36000Y29100D03*
G01X37000Y29100D03*
G54D24*
G01X11000Y18100D03*
G54D25*
G01X11000Y17100D03*
G01X11000Y16100D03*
G01X11000Y15100D03*
G01X11000Y14100D03*
G01X11000Y13100D03*
G01X11000Y12100D03*
G01X11000Y11100D03*
G01X11000Y10100D03*
G01X11000Y9100D03*
G01X11000Y8100D03*
G01X11000Y7100D03*
G01X11000Y6100D03*
G01X11000Y5100D03*
G01X11000Y4100D03*
G54D12*
G01X23950Y16150D03*
G01X24450Y16150D03*
G01X24950Y16150D03*
G01X25450Y16150D03*
G01X23950Y15650D03*
G01X24500Y15600D03*
G01X25000Y15600D03*
G01X26000Y15100D03*
G01X26000Y14600D03*
G01X26000Y14100D03*
G01X25500Y14100D03*
G01X25000Y14100D03*
G01X24500Y14100D03*
G01X23950Y15150D03*
G01X24950Y14650D03*
G01X25450Y14650D03*
G01X20000Y20100D03*
G01X21950Y18150D03*
G01X21950Y16150D03*
G01X23950Y18150D03*
G01X26000Y18150D03*
G01X28000Y18150D03*
G01X28000Y16150D03*
G01X28000Y14100D03*
G01X28000Y12100D03*
G01X26000Y12100D03*
G01X23950Y12100D03*
G01X21950Y12100D03*
G01X21950Y14100D03*
G01X20000Y19600D03*
G01X21950Y17150D03*
G01X22950Y18150D03*
G01X25000Y18150D03*
G01X27000Y18150D03*
G01X21950Y15600D03*
G01X21950Y13100D03*
G01X22950Y12100D03*
G01X24950Y12100D03*
G01X27025Y12075D03*
G01X28000Y13100D03*
G01X28000Y15100D03*
G01X28000Y17150D03*
G01X2250Y13050D03*
G01X3250Y13050D03*
G01X1850Y9400D03*
G01X2650Y9400D03*
G01X5000Y27350D03*
G01X2000Y24400D03*
G01X31300Y7800D03*
G01X31300Y6800D03*
G01X31300Y5850D03*
G01X34650Y6450D03*
G01X34650Y5450D03*
G01X34625Y4475D03*
G01X13000Y25600D03*
G01X16000Y19600D03*
G01X11950Y26650D03*
G01X10950Y25650D03*
G54D13*
G01X21723Y20207D03*
G01X24094Y20488D03*
G01X20472Y20984D03*
G01X23903Y20151D03*
G01X20264Y21459D03*
G01X24723Y20205D03*
G01X19638Y22067D03*
G01X19618Y19052D03*
G01X21435Y17625D03*
G01X25702Y20265D03*
G01X19546Y22388D03*
G01X26723Y20198D03*
G01X28475Y17169D03*
G01X27710Y20507D03*
G01X28406Y20155D03*
G01X28864Y20201D03*
G01X24943Y19138D03*
G01X28503Y16632D03*
G01X28514Y19628D03*
G01X30056Y19625D03*
G01X35438Y22571D03*
G01X21430Y16626D03*
G01X31535Y18876D03*
G01X13268Y18171D03*
G01X22227Y17876D03*
G01X18671Y21667D03*
G01X14588Y16376D03*
G01X15410Y16046D03*
G01X28989Y16609D03*
G01X15017Y15117D03*
G01X22207Y15134D03*
G01X22772Y16276D03*
G01X15131Y23498D03*
G01X14352Y15376D03*
G01X20959Y15140D03*
G01X35952Y15338D03*
G01X16077Y14630D03*
G01X23165Y15880D03*
G01X18790Y14125D03*
G01X13568Y22675D03*
G01X21475Y14096D03*
G01X17893Y20003D03*
G01X28490Y13642D03*
G01X15213Y13376D03*
G01X15471Y13625D03*
G01X20988Y13138D03*
G01X23435Y14676D03*
G01X19896Y13003D03*
G01X34431Y12625D03*
G01X32443Y12876D03*
G01X23681Y15392D03*
G01X20446Y11109D03*
G01X21935Y10621D03*
G01X20726Y10051D03*
G01X29656Y10042D03*
M00*
M02*
