G04 Layer: TopSilkLayer*
G04 EasyEDA v5.9.42, Mon, 25 Mar 2019 10:54:48 GMT*
G04 64f0bed4ef7340cbb712f4c35e6e27d8*
G04 Gerber Generator version 0.2*
G04 Scale: 100 percent, Rotated: No, Reflected: No *
G04 Dimensions in inches *
G04 leading zeros omitted , absolute positions ,2 integer and 4 decimal *
%FSLAX24Y24*%
%MOIN*%
G90*
G70D02*

%ADD10C,0.010000*%
%ADD11C,0.008000*%
%ADD26C,0.007870*%
%ADD27C,0.007992*%
%ADD28C,0.005910*%
%ADD29C,0.006000*%
%ADD30C,0.007874*%

%LPD*%
G54D26*
G01X20224Y20440D02*
G01X30289Y20440D01*
G01X30289Y9810D01*
G01X19659Y9810D01*
G01X19659Y19875D01*
G01X20224Y20440D01*
G54D10*
G01X8000Y27350D02*
G01X8000Y26850D01*
G01X6950Y27600D02*
G01X9050Y27600D01*
G01X9050Y27600D02*
G01X9050Y26600D01*
G01X9050Y26600D02*
G01X6950Y26600D01*
G01X6950Y26600D02*
G01X6950Y27600D01*
G01X8000Y25350D02*
G01X8000Y24850D01*
G01X6950Y25600D02*
G01X9050Y25600D01*
G01X9050Y25600D02*
G01X9050Y24600D01*
G01X9050Y24600D02*
G01X6950Y24600D01*
G01X6950Y24600D02*
G01X6950Y25600D01*
G01X8000Y23350D02*
G01X8000Y22850D01*
G01X6950Y23600D02*
G01X9050Y23600D01*
G01X9050Y23600D02*
G01X9050Y22600D01*
G01X9050Y22600D02*
G01X6950Y22600D01*
G01X6950Y22600D02*
G01X6950Y23600D01*
G01X8000Y21350D02*
G01X8000Y20850D01*
G01X6950Y21600D02*
G01X9050Y21600D01*
G01X9050Y21600D02*
G01X9050Y20600D01*
G01X9050Y20600D02*
G01X6950Y20600D01*
G01X6950Y20600D02*
G01X6950Y21600D01*
G01X8000Y19350D02*
G01X8000Y18850D01*
G01X6950Y19600D02*
G01X9050Y19600D01*
G01X9050Y19600D02*
G01X9050Y18600D01*
G01X9050Y18600D02*
G01X6950Y18600D01*
G01X6950Y18600D02*
G01X6950Y19600D01*
G01X8000Y17350D02*
G01X8000Y16850D01*
G01X6950Y17600D02*
G01X9050Y17600D01*
G01X9050Y17600D02*
G01X9050Y16600D01*
G01X9050Y16600D02*
G01X6950Y16600D01*
G01X6950Y16600D02*
G01X6950Y17600D01*
G01X8000Y15350D02*
G01X8000Y14850D01*
G01X6950Y15600D02*
G01X9050Y15600D01*
G01X9050Y15600D02*
G01X9050Y14600D01*
G01X9050Y14600D02*
G01X6950Y14600D01*
G01X6950Y14600D02*
G01X6950Y15600D01*
G01X8000Y13350D02*
G01X8000Y12850D01*
G01X6950Y13600D02*
G01X9050Y13600D01*
G01X9050Y13600D02*
G01X9050Y12600D01*
G01X9050Y12600D02*
G01X6950Y12600D01*
G01X6950Y12600D02*
G01X6950Y13600D01*
G01X8000Y11350D02*
G01X8000Y10850D01*
G01X6950Y11600D02*
G01X9050Y11600D01*
G01X9050Y11600D02*
G01X9050Y10600D01*
G01X9050Y10600D02*
G01X6950Y10600D01*
G01X6950Y10600D02*
G01X6950Y11600D01*
G01X8000Y9350D02*
G01X8000Y8850D01*
G01X6950Y9600D02*
G01X9050Y9600D01*
G01X9050Y9600D02*
G01X9050Y8600D01*
G01X9050Y8600D02*
G01X6950Y8600D01*
G01X6950Y8600D02*
G01X6950Y9600D01*
G01X8000Y7350D02*
G01X8000Y6850D01*
G01X6950Y7600D02*
G01X9050Y7600D01*
G01X9050Y7600D02*
G01X9050Y6600D01*
G01X9050Y6600D02*
G01X6950Y6600D01*
G01X6950Y6600D02*
G01X6950Y7600D01*
G01X8000Y5350D02*
G01X8000Y4850D01*
G01X6950Y5600D02*
G01X9050Y5600D01*
G01X9050Y5600D02*
G01X9050Y4600D01*
G01X9050Y4600D02*
G01X6950Y4600D01*
G01X6950Y4600D02*
G01X6950Y5600D01*
G01X8000Y3350D02*
G01X8000Y2850D01*
G01X6950Y3600D02*
G01X9050Y3600D01*
G01X9050Y3600D02*
G01X9050Y2600D01*
G01X9050Y2600D02*
G01X6950Y2600D01*
G01X6950Y2600D02*
G01X6950Y3600D01*
G54D11*
G01X38000Y25100D02*
G01X36000Y25100D01*
G01X36000Y5100D01*
G01X38000Y5100D01*
G01X38000Y25100D01*
G01X16000Y4100D02*
G01X16000Y2100D01*
G01X32000Y2100D01*
G01X32000Y4100D01*
G01X16000Y4100D01*
G54D10*
G01X1200Y15900D02*
G01X5300Y15900D01*
G01X5300Y22150D02*
G01X1200Y22150D01*
G01X5300Y15900D02*
G01X5300Y20800D01*
G01X5300Y20800D02*
G01X4950Y20800D01*
G01X4950Y20800D02*
G01X4950Y21400D01*
G01X4950Y21400D02*
G01X5300Y21400D01*
G01X5300Y21400D02*
G01X5300Y22150D01*
G01X1200Y15900D02*
G01X1200Y20800D01*
G01X1200Y20800D02*
G01X1550Y20800D01*
G01X1550Y20800D02*
G01X1550Y21400D01*
G01X1550Y21400D02*
G01X1200Y21400D01*
G01X1200Y21400D02*
G01X1200Y22150D01*
G01X1450Y16150D02*
G01X5050Y16150D01*
G01X5050Y19400D02*
G01X5050Y16150D01*
G01X5050Y19400D02*
G01X1450Y19400D01*
G01X1450Y16150D02*
G01X1450Y19400D01*
G01X5000Y10350D02*
G01X5000Y9850D01*
G01X3950Y10600D02*
G01X6050Y10600D01*
G01X6050Y10600D02*
G01X6050Y9600D01*
G01X6050Y9600D02*
G01X3950Y9600D01*
G01X3950Y9600D02*
G01X3950Y10600D01*
G54D11*
G01X19250Y28600D02*
G01X20000Y28600D01*
G01X20000Y29600D01*
G01X14000Y29600D01*
G01X14000Y28600D01*
G54D27*
G01X14000Y28600D02*
G01X19250Y28600D01*
G54D11*
G01X4000Y6600D02*
G01X4000Y5600D01*
G01X2000Y5600D01*
G01X2000Y6600D01*
G01X2750Y6600D01*
G54D27*
G01X4000Y6600D02*
G01X2750Y6600D01*
G54D11*
G01X39500Y5100D02*
G01X39550Y5100D01*
G01X39550Y25100D01*
G01X38500Y25100D01*
G01X38500Y5100D01*
G01X39500Y5100D01*
G01X34000Y1600D02*
G01X34000Y1650D01*
G01X14000Y1650D01*
G01X14000Y600D01*
G01X34000Y600D01*
G01X34000Y1600D01*
G54D28*
G01X5500Y29200D02*
G01X900Y29200D01*
G01X900Y24600D01*
G01X6100Y24600D02*
G01X6100Y28600D01*
G01X5500Y24000D02*
G01X1500Y24000D01*
G54D11*
G01X32250Y7600D02*
G01X31500Y7600D01*
G01X31500Y6600D01*
G01X34500Y6600D01*
G01X34500Y7600D01*
G54D27*
G01X34500Y7600D02*
G01X32250Y7600D01*
G54D11*
G01X32250Y6600D02*
G01X31500Y6600D01*
G01X31500Y5600D01*
G01X34500Y5600D01*
G01X34500Y6600D01*
G54D27*
G01X34500Y6600D02*
G01X32250Y6600D01*
G54D11*
G01X32250Y5600D02*
G01X31500Y5600D01*
G01X31500Y4600D01*
G01X34500Y4600D01*
G01X34500Y5600D01*
G54D27*
G01X34500Y5600D02*
G01X32250Y5600D01*
G54D26*
G01X10496Y19123D02*
G01X10496Y27076D01*
G01X17503Y27076D01*
G01X17503Y19123D01*
G01X10496Y19123D01*
G54D10*
G01X14000Y18200D02*
G01X14000Y4000D01*
G01X14000Y4000D02*
G01X12000Y4000D01*
G01X12000Y4000D02*
G01X12000Y18200D01*
G01X12000Y18200D02*
G01X14000Y18200D01*
G01X13000Y18200D02*
G01X13000Y17100D01*
G01X12000Y17100D01*
G01X22900Y28100D02*
G01X37100Y28100D01*
G01X37100Y28100D02*
G01X37100Y26100D01*
G01X37100Y26100D02*
G01X22900Y26100D01*
G01X22900Y26100D02*
G01X22900Y28100D01*
G01X22900Y27100D02*
G01X24000Y27100D01*
G01X24000Y26100D01*
G01X22500Y29600D02*
G01X22500Y28600D01*
G01X37600Y28600D01*
G01X37600Y29600D01*
G01X22500Y29600D01*
G01X23500Y29600D02*
G01X23500Y28600D01*
G01X11500Y18600D02*
G01X10500Y18600D01*
G01X10500Y3500D01*
G01X11500Y3500D01*
G01X11500Y18600D01*
G01X11500Y17600D02*
G01X10500Y17600D01*
G54D29*
G01X24900Y21796D02*
G01X24900Y21367D01*
G01X25342Y21694D02*
G01X25321Y21734D01*
G01X25280Y21776D01*
G01X25239Y21796D01*
G01X25157Y21796D01*
G01X25117Y21776D01*
G01X25076Y21734D01*
G01X25055Y21694D01*
G01X25035Y21632D01*
G01X25035Y21530D01*
G01X25055Y21469D01*
G01X25076Y21428D01*
G01X25117Y21388D01*
G01X25157Y21367D01*
G01X25239Y21367D01*
G01X25280Y21388D01*
G01X25321Y21428D01*
G01X25342Y21469D01*
G01X25477Y21715D02*
G01X25518Y21734D01*
G01X25578Y21796D01*
G01X25578Y21367D01*
G01X8306Y28027D02*
G01X8285Y28067D01*
G01X8244Y28109D01*
G01X8205Y28128D01*
G01X8122Y28128D01*
G01X8081Y28109D01*
G01X8040Y28067D01*
G01X8019Y28027D01*
G01X8000Y27965D01*
G01X8000Y27863D01*
G01X8019Y27802D01*
G01X8040Y27761D01*
G01X8081Y27719D01*
G01X8122Y27700D01*
G01X8205Y27700D01*
G01X8244Y27719D01*
G01X8285Y27761D01*
G01X8306Y27802D01*
G01X8442Y28048D02*
G01X8482Y28067D01*
G01X8543Y28128D01*
G01X8543Y27700D01*
G01X8306Y26027D02*
G01X8285Y26067D01*
G01X8244Y26109D01*
G01X8205Y26128D01*
G01X8122Y26128D01*
G01X8081Y26109D01*
G01X8040Y26067D01*
G01X8019Y26027D01*
G01X8000Y25965D01*
G01X8000Y25863D01*
G01X8019Y25802D01*
G01X8040Y25761D01*
G01X8081Y25719D01*
G01X8122Y25700D01*
G01X8205Y25700D01*
G01X8244Y25719D01*
G01X8285Y25761D01*
G01X8306Y25802D01*
G01X8461Y26027D02*
G01X8461Y26048D01*
G01X8482Y26088D01*
G01X8502Y26109D01*
G01X8543Y26128D01*
G01X8626Y26128D01*
G01X8667Y26109D01*
G01X8686Y26088D01*
G01X8707Y26048D01*
G01X8707Y26007D01*
G01X8686Y25965D01*
G01X8646Y25903D01*
G01X8442Y25700D01*
G01X8727Y25700D01*
G01X8306Y24027D02*
G01X8285Y24067D01*
G01X8244Y24109D01*
G01X8205Y24128D01*
G01X8122Y24128D01*
G01X8081Y24109D01*
G01X8040Y24067D01*
G01X8019Y24027D01*
G01X8000Y23965D01*
G01X8000Y23863D01*
G01X8019Y23802D01*
G01X8040Y23761D01*
G01X8081Y23719D01*
G01X8122Y23700D01*
G01X8205Y23700D01*
G01X8244Y23719D01*
G01X8285Y23761D01*
G01X8306Y23802D01*
G01X8482Y24128D02*
G01X8707Y24128D01*
G01X8585Y23965D01*
G01X8646Y23965D01*
G01X8686Y23944D01*
G01X8707Y23925D01*
G01X8727Y23863D01*
G01X8727Y23823D01*
G01X8707Y23761D01*
G01X8667Y23719D01*
G01X8605Y23700D01*
G01X8543Y23700D01*
G01X8482Y23719D01*
G01X8461Y23740D01*
G01X8442Y23782D01*
G01X8306Y22027D02*
G01X8285Y22067D01*
G01X8244Y22109D01*
G01X8205Y22128D01*
G01X8122Y22128D01*
G01X8081Y22109D01*
G01X8040Y22067D01*
G01X8019Y22027D01*
G01X8000Y21965D01*
G01X8000Y21863D01*
G01X8019Y21802D01*
G01X8040Y21761D01*
G01X8081Y21719D01*
G01X8122Y21700D01*
G01X8205Y21700D01*
G01X8244Y21719D01*
G01X8285Y21761D01*
G01X8306Y21802D01*
G01X8646Y22128D02*
G01X8442Y21842D01*
G01X8748Y21842D01*
G01X8646Y22128D02*
G01X8646Y21700D01*
G01X8306Y20027D02*
G01X8285Y20067D01*
G01X8244Y20109D01*
G01X8205Y20128D01*
G01X8122Y20128D01*
G01X8081Y20109D01*
G01X8040Y20067D01*
G01X8019Y20027D01*
G01X8000Y19965D01*
G01X8000Y19863D01*
G01X8019Y19802D01*
G01X8040Y19761D01*
G01X8081Y19719D01*
G01X8122Y19700D01*
G01X8205Y19700D01*
G01X8244Y19719D01*
G01X8285Y19761D01*
G01X8306Y19802D01*
G01X8686Y20128D02*
G01X8482Y20128D01*
G01X8461Y19944D01*
G01X8482Y19965D01*
G01X8543Y19986D01*
G01X8605Y19986D01*
G01X8667Y19965D01*
G01X8707Y19925D01*
G01X8727Y19863D01*
G01X8727Y19823D01*
G01X8707Y19761D01*
G01X8667Y19719D01*
G01X8605Y19700D01*
G01X8543Y19700D01*
G01X8482Y19719D01*
G01X8461Y19740D01*
G01X8442Y19782D01*
G01X8306Y18027D02*
G01X8285Y18067D01*
G01X8244Y18109D01*
G01X8205Y18128D01*
G01X8122Y18128D01*
G01X8081Y18109D01*
G01X8040Y18067D01*
G01X8019Y18027D01*
G01X8000Y17965D01*
G01X8000Y17863D01*
G01X8019Y17802D01*
G01X8040Y17761D01*
G01X8081Y17719D01*
G01X8122Y17700D01*
G01X8205Y17700D01*
G01X8244Y17719D01*
G01X8285Y17761D01*
G01X8306Y17802D01*
G01X8686Y18067D02*
G01X8667Y18109D01*
G01X8605Y18128D01*
G01X8564Y18128D01*
G01X8502Y18109D01*
G01X8461Y18048D01*
G01X8442Y17944D01*
G01X8442Y17842D01*
G01X8461Y17761D01*
G01X8502Y17719D01*
G01X8564Y17700D01*
G01X8585Y17700D01*
G01X8646Y17719D01*
G01X8686Y17761D01*
G01X8707Y17823D01*
G01X8707Y17842D01*
G01X8686Y17903D01*
G01X8646Y17944D01*
G01X8585Y17965D01*
G01X8564Y17965D01*
G01X8502Y17944D01*
G01X8461Y17903D01*
G01X8442Y17842D01*
G01X8306Y16026D02*
G01X8285Y16067D01*
G01X8244Y16109D01*
G01X8205Y16128D01*
G01X8122Y16128D01*
G01X8081Y16109D01*
G01X8040Y16067D01*
G01X8019Y16026D01*
G01X8000Y15965D01*
G01X8000Y15863D01*
G01X8019Y15801D01*
G01X8040Y15761D01*
G01X8081Y15719D01*
G01X8122Y15700D01*
G01X8205Y15700D01*
G01X8244Y15719D01*
G01X8285Y15761D01*
G01X8306Y15801D01*
G01X8727Y16128D02*
G01X8523Y15700D01*
G01X8442Y16128D02*
G01X8727Y16128D01*
G01X8306Y14026D02*
G01X8285Y14067D01*
G01X8244Y14109D01*
G01X8205Y14128D01*
G01X8122Y14128D01*
G01X8081Y14109D01*
G01X8040Y14067D01*
G01X8019Y14026D01*
G01X8000Y13965D01*
G01X8000Y13863D01*
G01X8019Y13801D01*
G01X8040Y13761D01*
G01X8081Y13719D01*
G01X8122Y13700D01*
G01X8205Y13700D01*
G01X8244Y13719D01*
G01X8285Y13761D01*
G01X8306Y13801D01*
G01X8543Y14128D02*
G01X8482Y14109D01*
G01X8461Y14067D01*
G01X8461Y14026D01*
G01X8482Y13986D01*
G01X8523Y13965D01*
G01X8605Y13944D01*
G01X8667Y13925D01*
G01X8707Y13884D01*
G01X8727Y13842D01*
G01X8727Y13782D01*
G01X8707Y13740D01*
G01X8686Y13719D01*
G01X8626Y13700D01*
G01X8543Y13700D01*
G01X8482Y13719D01*
G01X8461Y13740D01*
G01X8442Y13782D01*
G01X8442Y13842D01*
G01X8461Y13884D01*
G01X8502Y13925D01*
G01X8564Y13944D01*
G01X8646Y13965D01*
G01X8686Y13986D01*
G01X8707Y14026D01*
G01X8707Y14067D01*
G01X8686Y14109D01*
G01X8626Y14128D01*
G01X8543Y14128D01*
G01X8306Y12026D02*
G01X8285Y12067D01*
G01X8244Y12109D01*
G01X8205Y12128D01*
G01X8122Y12128D01*
G01X8081Y12109D01*
G01X8040Y12067D01*
G01X8019Y12026D01*
G01X8000Y11965D01*
G01X8000Y11863D01*
G01X8019Y11801D01*
G01X8040Y11761D01*
G01X8081Y11719D01*
G01X8122Y11700D01*
G01X8205Y11700D01*
G01X8244Y11719D01*
G01X8285Y11761D01*
G01X8306Y11801D01*
G01X8707Y11986D02*
G01X8686Y11925D01*
G01X8646Y11884D01*
G01X8585Y11863D01*
G01X8564Y11863D01*
G01X8502Y11884D01*
G01X8461Y11925D01*
G01X8442Y11986D01*
G01X8442Y12007D01*
G01X8461Y12067D01*
G01X8502Y12109D01*
G01X8564Y12128D01*
G01X8585Y12128D01*
G01X8646Y12109D01*
G01X8686Y12067D01*
G01X8707Y11986D01*
G01X8707Y11884D01*
G01X8686Y11782D01*
G01X8646Y11719D01*
G01X8585Y11700D01*
G01X8543Y11700D01*
G01X8482Y11719D01*
G01X8461Y11761D01*
G01X8306Y10026D02*
G01X8285Y10067D01*
G01X8244Y10109D01*
G01X8205Y10128D01*
G01X8122Y10128D01*
G01X8081Y10109D01*
G01X8040Y10067D01*
G01X8019Y10026D01*
G01X8000Y9965D01*
G01X8000Y9863D01*
G01X8019Y9801D01*
G01X8040Y9761D01*
G01X8081Y9719D01*
G01X8122Y9700D01*
G01X8205Y9700D01*
G01X8244Y9719D01*
G01X8285Y9761D01*
G01X8306Y9801D01*
G01X8442Y10048D02*
G01X8482Y10067D01*
G01X8543Y10128D01*
G01X8543Y9700D01*
G01X8802Y10128D02*
G01X8739Y10109D01*
G01X8700Y10048D01*
G01X8678Y9944D01*
G01X8678Y9884D01*
G01X8700Y9782D01*
G01X8739Y9719D01*
G01X8802Y9700D01*
G01X8843Y9700D01*
G01X8903Y9719D01*
G01X8944Y9782D01*
G01X8964Y9884D01*
G01X8964Y9944D01*
G01X8944Y10048D01*
G01X8903Y10109D01*
G01X8843Y10128D01*
G01X8802Y10128D01*
G01X8306Y8026D02*
G01X8285Y8067D01*
G01X8244Y8109D01*
G01X8205Y8128D01*
G01X8122Y8128D01*
G01X8081Y8109D01*
G01X8040Y8067D01*
G01X8019Y8026D01*
G01X8000Y7965D01*
G01X8000Y7863D01*
G01X8019Y7801D01*
G01X8040Y7761D01*
G01X8081Y7719D01*
G01X8122Y7700D01*
G01X8205Y7700D01*
G01X8244Y7719D01*
G01X8285Y7761D01*
G01X8306Y7801D01*
G01X8442Y8048D02*
G01X8482Y8067D01*
G01X8543Y8128D01*
G01X8543Y7700D01*
G01X8678Y8048D02*
G01X8719Y8067D01*
G01X8781Y8128D01*
G01X8781Y7700D01*
G01X8306Y6026D02*
G01X8285Y6067D01*
G01X8244Y6109D01*
G01X8205Y6128D01*
G01X8122Y6128D01*
G01X8081Y6109D01*
G01X8040Y6067D01*
G01X8019Y6026D01*
G01X8000Y5965D01*
G01X8000Y5863D01*
G01X8019Y5801D01*
G01X8040Y5761D01*
G01X8081Y5719D01*
G01X8122Y5700D01*
G01X8205Y5700D01*
G01X8244Y5719D01*
G01X8285Y5761D01*
G01X8306Y5801D01*
G01X8442Y6048D02*
G01X8482Y6067D01*
G01X8543Y6128D01*
G01X8543Y5700D01*
G01X8700Y6026D02*
G01X8700Y6048D01*
G01X8719Y6088D01*
G01X8739Y6109D01*
G01X8781Y6128D01*
G01X8863Y6128D01*
G01X8903Y6109D01*
G01X8925Y6088D01*
G01X8944Y6048D01*
G01X8944Y6007D01*
G01X8925Y5965D01*
G01X8884Y5903D01*
G01X8678Y5700D01*
G01X8964Y5700D01*
G01X8306Y4026D02*
G01X8285Y4067D01*
G01X8244Y4109D01*
G01X8205Y4128D01*
G01X8122Y4128D01*
G01X8081Y4109D01*
G01X8040Y4067D01*
G01X8019Y4026D01*
G01X8000Y3965D01*
G01X8000Y3863D01*
G01X8019Y3801D01*
G01X8040Y3761D01*
G01X8081Y3719D01*
G01X8122Y3700D01*
G01X8205Y3700D01*
G01X8244Y3719D01*
G01X8285Y3761D01*
G01X8306Y3801D01*
G01X8442Y4048D02*
G01X8482Y4067D01*
G01X8543Y4128D01*
G01X8543Y3700D01*
G01X8719Y4128D02*
G01X8944Y4128D01*
G01X8822Y3965D01*
G01X8884Y3965D01*
G01X8925Y3944D01*
G01X8944Y3925D01*
G01X8964Y3863D01*
G01X8964Y3823D01*
G01X8944Y3761D01*
G01X8903Y3719D01*
G01X8843Y3700D01*
G01X8781Y3700D01*
G01X8719Y3719D01*
G01X8700Y3740D01*
G01X8678Y3782D01*
G01X36849Y4076D02*
G01X37278Y4076D01*
G01X36849Y4076D02*
G01X36849Y4260D01*
G01X36869Y4321D01*
G01X36889Y4342D01*
G01X36930Y4362D01*
G01X36992Y4362D01*
G01X37033Y4342D01*
G01X37053Y4321D01*
G01X37074Y4260D01*
G01X37074Y4076D01*
G01X36951Y4518D02*
G01X36930Y4518D01*
G01X36889Y4538D01*
G01X36869Y4559D01*
G01X36849Y4600D01*
G01X36849Y4681D01*
G01X36869Y4722D01*
G01X36889Y4743D01*
G01X36930Y4763D01*
G01X36971Y4763D01*
G01X37012Y4743D01*
G01X37074Y4702D01*
G01X37278Y4497D01*
G01X37278Y4784D01*
G01X14850Y3250D02*
G01X14850Y2821D01*
G01X14850Y3250D02*
G01X15034Y3250D01*
G01X15094Y3230D01*
G01X15115Y3209D01*
G01X15135Y3169D01*
G01X15135Y3107D01*
G01X15115Y3065D01*
G01X15094Y3046D01*
G01X15034Y3025D01*
G01X14850Y3025D01*
G01X15311Y3250D02*
G01X15536Y3250D01*
G01X15414Y3086D01*
G01X15476Y3086D01*
G01X15517Y3065D01*
G01X15536Y3046D01*
G01X15557Y2984D01*
G01X15557Y2944D01*
G01X15536Y2882D01*
G01X15496Y2840D01*
G01X15435Y2821D01*
G01X15373Y2821D01*
G01X15311Y2840D01*
G01X15292Y2861D01*
G01X15271Y2903D01*
G01X3250Y22678D02*
G01X3250Y22373D01*
G01X3269Y22311D01*
G01X3311Y22269D01*
G01X3373Y22250D01*
G01X3413Y22250D01*
G01X3475Y22269D01*
G01X3515Y22311D01*
G01X3536Y22373D01*
G01X3536Y22678D01*
G01X3671Y22598D02*
G01X3711Y22617D01*
G01X3773Y22678D01*
G01X3773Y22250D01*
G01X1573Y19609D02*
G01X1500Y19417D01*
G01X1573Y19609D02*
G01X1644Y19417D01*
G01X1526Y19482D02*
G01X1617Y19482D01*
G01X1705Y19573D02*
G01X1723Y19582D01*
G01X1751Y19609D01*
G01X1751Y19417D01*
G01X1938Y19609D02*
G01X1846Y19417D01*
G01X1811Y19609D02*
G01X1938Y19609D01*
G01X2015Y19455D02*
G01X2007Y19444D01*
G01X1998Y19455D01*
G01X2007Y19463D01*
G01X2015Y19455D01*
G01X2015Y19436D01*
G01X1998Y19417D01*
G01X2184Y19609D02*
G01X2094Y19609D01*
G01X2084Y19527D01*
G01X2094Y19536D01*
G01X2121Y19544D01*
G01X2148Y19544D01*
G01X2176Y19536D01*
G01X2194Y19517D01*
G01X2203Y19490D01*
G01X2203Y19473D01*
G01X2194Y19444D01*
G01X2176Y19427D01*
G01X2148Y19417D01*
G01X2121Y19417D01*
G01X2094Y19427D01*
G01X2084Y19436D01*
G01X2076Y19455D01*
G01X2263Y19544D02*
G01X2263Y19417D01*
G01X2263Y19509D02*
G01X2290Y19536D01*
G01X2309Y19544D01*
G01X2336Y19544D01*
G01X2355Y19536D01*
G01X2363Y19509D01*
G01X2363Y19417D01*
G01X2363Y19509D02*
G01X2390Y19536D01*
G01X2409Y19544D01*
G01X2436Y19544D01*
G01X2455Y19536D01*
G01X2463Y19509D01*
G01X2463Y19417D01*
G01X2523Y19544D02*
G01X2523Y19417D01*
G01X2523Y19509D02*
G01X2551Y19536D01*
G01X2569Y19544D01*
G01X2596Y19544D01*
G01X2615Y19536D01*
G01X2623Y19509D01*
G01X2623Y19417D01*
G01X2623Y19509D02*
G01X2651Y19536D01*
G01X2669Y19544D01*
G01X2696Y19544D01*
G01X2715Y19536D01*
G01X2723Y19509D01*
G01X2723Y19417D01*
G01X2156Y11354D02*
G01X2135Y11395D01*
G01X2094Y11436D01*
G01X2054Y11456D01*
G01X1972Y11456D01*
G01X1931Y11436D01*
G01X1890Y11395D01*
G01X1869Y11354D01*
G01X1849Y11293D01*
G01X1849Y11191D01*
G01X1869Y11129D01*
G01X1890Y11088D01*
G01X1931Y11047D01*
G01X1972Y11027D01*
G01X2054Y11027D01*
G01X2094Y11047D01*
G01X2135Y11088D01*
G01X2156Y11129D01*
G01X2291Y11375D02*
G01X2332Y11395D01*
G01X2393Y11456D01*
G01X2393Y11027D01*
G01X2733Y11456D02*
G01X2528Y11170D01*
G01X2835Y11170D01*
G01X2733Y11456D02*
G01X2733Y11027D01*
G54D30*
G01X976Y10927D02*
G01X976Y10273D01*
G01X649Y10600D02*
G01X1304Y10600D01*
G54D29*
G01X5306Y11026D02*
G01X5285Y11067D01*
G01X5244Y11109D01*
G01X5205Y11128D01*
G01X5122Y11128D01*
G01X5081Y11109D01*
G01X5040Y11067D01*
G01X5019Y11026D01*
G01X5000Y10965D01*
G01X5000Y10863D01*
G01X5019Y10801D01*
G01X5040Y10761D01*
G01X5081Y10719D01*
G01X5122Y10700D01*
G01X5205Y10700D01*
G01X5244Y10719D01*
G01X5285Y10761D01*
G01X5306Y10801D01*
G01X5442Y11048D02*
G01X5482Y11067D01*
G01X5543Y11128D01*
G01X5543Y10700D01*
G01X5925Y11128D02*
G01X5719Y11128D01*
G01X5700Y10944D01*
G01X5719Y10965D01*
G01X5781Y10986D01*
G01X5843Y10986D01*
G01X5903Y10965D01*
G01X5944Y10925D01*
G01X5964Y10863D01*
G01X5964Y10823D01*
G01X5944Y10761D01*
G01X5903Y10719D01*
G01X5843Y10700D01*
G01X5781Y10700D01*
G01X5719Y10719D01*
G01X5700Y10740D01*
G01X5678Y10782D01*
G01X12275Y29250D02*
G01X12275Y28923D01*
G01X12253Y28862D01*
G01X12234Y28841D01*
G01X12193Y28821D01*
G01X12152Y28821D01*
G01X12110Y28841D01*
G01X12089Y28862D01*
G01X12069Y28923D01*
G01X12069Y28964D01*
G01X12552Y29250D02*
G01X12552Y28821D01*
G01X12410Y29250D02*
G01X12696Y29250D01*
G01X12994Y29250D02*
G01X12831Y28821D01*
G01X12994Y29250D02*
G01X13157Y28821D01*
G01X12892Y28964D02*
G01X13097Y28964D01*
G01X13600Y29148D02*
G01X13580Y29189D01*
G01X13539Y29230D01*
G01X13497Y29250D01*
G01X13415Y29250D01*
G01X13375Y29230D01*
G01X13334Y29189D01*
G01X13314Y29148D01*
G01X13293Y29087D01*
G01X13293Y28985D01*
G01X13314Y28923D01*
G01X13334Y28882D01*
G01X13375Y28841D01*
G01X13415Y28821D01*
G01X13497Y28821D01*
G01X13539Y28841D01*
G01X13580Y28882D01*
G01X13600Y28923D01*
G01X13600Y28985D01*
G01X13497Y28985D02*
G01X13600Y28985D01*
G01X1750Y7367D02*
G01X1913Y6938D01*
G01X2076Y7367D02*
G01X1913Y6938D01*
G01X2211Y7367D02*
G01X2211Y6938D01*
G01X2346Y7367D02*
G01X2346Y6938D01*
G01X2346Y7367D02*
G01X2634Y6938D01*
G01X2634Y7367D02*
G01X2634Y6938D01*
G01X3136Y7450D02*
G01X2769Y6796D01*
G01X3271Y7367D02*
G01X3434Y6938D01*
G01X3598Y7367D02*
G01X3434Y6938D01*
G01X4019Y7307D02*
G01X3980Y7348D01*
G01X3917Y7367D01*
G01X3836Y7367D01*
G01X3775Y7348D01*
G01X3734Y7307D01*
G01X3734Y7265D01*
G01X3755Y7225D01*
G01X3775Y7205D01*
G01X3815Y7184D01*
G01X3938Y7142D01*
G01X3980Y7123D01*
G01X4000Y7103D01*
G01X4019Y7061D01*
G01X4019Y7000D01*
G01X3980Y6959D01*
G01X3917Y6938D01*
G01X3836Y6938D01*
G01X3775Y6959D01*
G01X3734Y7000D01*
G01X4442Y7307D02*
G01X4401Y7348D01*
G01X4340Y7367D01*
G01X4257Y7367D01*
G01X4196Y7348D01*
G01X4155Y7307D01*
G01X4155Y7265D01*
G01X4176Y7225D01*
G01X4196Y7205D01*
G01X4236Y7184D01*
G01X4359Y7142D01*
G01X4401Y7123D01*
G01X4421Y7103D01*
G01X4442Y7061D01*
G01X4442Y7000D01*
G01X4401Y6959D01*
G01X4340Y6938D01*
G01X4257Y6938D01*
G01X4196Y6959D01*
G01X4155Y7000D01*
G01X38759Y2594D02*
G01X39188Y2759D01*
G01X38759Y2921D02*
G01X39188Y2759D01*
G01X38820Y3344D02*
G01X38779Y3303D01*
G01X38759Y3240D01*
G01X38759Y3159D01*
G01X38779Y3098D01*
G01X38820Y3057D01*
G01X38861Y3057D01*
G01X38902Y3078D01*
G01X38922Y3098D01*
G01X38943Y3138D01*
G01X38984Y3261D01*
G01X39004Y3303D01*
G01X39024Y3323D01*
G01X39065Y3344D01*
G01X39127Y3344D01*
G01X39168Y3303D01*
G01X39188Y3240D01*
G01X39188Y3159D01*
G01X39168Y3098D01*
G01X39127Y3057D01*
G01X38820Y3765D02*
G01X38779Y3723D01*
G01X38759Y3663D01*
G01X38759Y3580D01*
G01X38779Y3519D01*
G01X38820Y3478D01*
G01X38861Y3478D01*
G01X38902Y3498D01*
G01X38922Y3519D01*
G01X38943Y3559D01*
G01X38984Y3682D01*
G01X39004Y3723D01*
G01X39024Y3744D01*
G01X39065Y3765D01*
G01X39127Y3765D01*
G01X39168Y3723D01*
G01X39188Y3663D01*
G01X39188Y3580D01*
G01X39168Y3519D01*
G01X39127Y3478D01*
G01X39331Y3900D02*
G01X39331Y4267D01*
G01X38861Y4423D02*
G01X38840Y4423D01*
G01X38799Y4444D01*
G01X38779Y4465D01*
G01X38759Y4505D01*
G01X38759Y4586D01*
G01X38779Y4628D01*
G01X38799Y4648D01*
G01X38840Y4669D01*
G01X38881Y4669D01*
G01X38922Y4648D01*
G01X38984Y4607D01*
G01X39188Y4403D01*
G01X39188Y4690D01*
G01X11450Y1350D02*
G01X11614Y921D01*
G01X11777Y1350D02*
G01X11614Y921D01*
G01X12198Y1288D02*
G01X12157Y1330D01*
G01X12096Y1350D01*
G01X12014Y1350D01*
G01X11952Y1330D01*
G01X11911Y1288D01*
G01X11911Y1248D01*
G01X11932Y1207D01*
G01X11952Y1186D01*
G01X11993Y1165D01*
G01X12117Y1125D01*
G01X12157Y1105D01*
G01X12177Y1084D01*
G01X12198Y1044D01*
G01X12198Y982D01*
G01X12157Y940D01*
G01X12096Y921D01*
G01X12014Y921D01*
G01X11952Y940D01*
G01X11911Y982D01*
G01X12619Y1288D02*
G01X12578Y1330D01*
G01X12518Y1350D01*
G01X12435Y1350D01*
G01X12375Y1330D01*
G01X12334Y1288D01*
G01X12334Y1248D01*
G01X12353Y1207D01*
G01X12375Y1186D01*
G01X12414Y1165D01*
G01X12538Y1125D01*
G01X12578Y1105D01*
G01X12600Y1084D01*
G01X12619Y1044D01*
G01X12619Y982D01*
G01X12578Y940D01*
G01X12518Y921D01*
G01X12435Y921D01*
G01X12375Y940D01*
G01X12334Y982D01*
G01X12755Y778D02*
G01X13122Y778D01*
G01X13298Y1350D02*
G01X13523Y1350D01*
G01X13401Y1186D01*
G01X13463Y1186D01*
G01X13503Y1165D01*
G01X13523Y1146D01*
G01X13544Y1084D01*
G01X13544Y1044D01*
G01X13523Y982D01*
G01X13482Y940D01*
G01X13422Y921D01*
G01X13360Y921D01*
G01X13298Y940D01*
G01X13278Y961D01*
G01X13257Y1003D01*
G01X3500Y29728D02*
G01X3500Y29423D01*
G01X3519Y29361D01*
G01X3561Y29319D01*
G01X3623Y29300D01*
G01X3663Y29300D01*
G01X3725Y29319D01*
G01X3765Y29361D01*
G01X3786Y29423D01*
G01X3786Y29728D01*
G01X3942Y29627D02*
G01X3942Y29648D01*
G01X3961Y29688D01*
G01X3982Y29709D01*
G01X4023Y29728D01*
G01X4105Y29728D01*
G01X4146Y29709D01*
G01X4167Y29688D01*
G01X4186Y29648D01*
G01X4186Y29607D01*
G01X4167Y29565D01*
G01X4126Y29503D01*
G01X3921Y29300D01*
G01X4207Y29300D01*
G01X34650Y7300D02*
G01X34650Y6871D01*
G01X34650Y7300D02*
G01X34814Y6871D01*
G01X34977Y7300D02*
G01X34814Y6871D01*
G01X34977Y7300D02*
G01X34977Y6871D01*
G01X35235Y7300D02*
G01X35173Y7280D01*
G01X35132Y7219D01*
G01X35111Y7115D01*
G01X35111Y7055D01*
G01X35132Y6953D01*
G01X35173Y6890D01*
G01X35235Y6871D01*
G01X35276Y6871D01*
G01X35336Y6890D01*
G01X35377Y6953D01*
G01X35398Y7055D01*
G01X35398Y7115D01*
G01X35377Y7219D01*
G01X35336Y7280D01*
G01X35276Y7300D01*
G01X35235Y7300D01*
G01X34700Y6300D02*
G01X34700Y5871D01*
G01X34700Y6300D02*
G01X34864Y5871D01*
G01X35027Y6300D02*
G01X34864Y5871D01*
G01X35027Y6300D02*
G01X35027Y5871D01*
G01X35161Y6219D02*
G01X35202Y6238D01*
G01X35264Y6300D01*
G01X35264Y5871D01*
G01X34650Y5278D02*
G01X34650Y4850D01*
G01X34650Y5278D02*
G01X34814Y4850D01*
G01X34977Y5278D02*
G01X34814Y4850D01*
G01X34977Y5278D02*
G01X34977Y4850D01*
G01X35132Y5176D02*
G01X35132Y5198D01*
G01X35152Y5238D01*
G01X35173Y5259D01*
G01X35214Y5278D01*
G01X35296Y5278D01*
G01X35336Y5259D01*
G01X35357Y5238D01*
G01X35377Y5198D01*
G01X35377Y5157D01*
G01X35357Y5115D01*
G01X35317Y5053D01*
G01X35111Y4850D01*
G01X35398Y4850D01*
G01X10550Y27699D02*
G01X10550Y27269D01*
G01X10550Y27699D02*
G01X10815Y27699D01*
G01X10550Y27494D02*
G01X10714Y27494D01*
G01X10550Y27269D02*
G01X10815Y27269D01*
G01X10951Y27699D02*
G01X10951Y27269D01*
G01X10951Y27699D02*
G01X11135Y27699D01*
G01X11196Y27678D01*
G01X11217Y27658D01*
G01X11236Y27617D01*
G01X11236Y27556D01*
G01X11217Y27515D01*
G01X11196Y27494D01*
G01X11135Y27474D01*
G01X10951Y27474D01*
G01X11372Y27699D02*
G01X11372Y27269D01*
G01X11372Y27699D02*
G01X11556Y27699D01*
G01X11618Y27678D01*
G01X11638Y27658D01*
G01X11659Y27617D01*
G01X11659Y27576D01*
G01X11638Y27535D01*
G01X11618Y27515D01*
G01X11556Y27494D01*
G01X11372Y27494D01*
G01X11514Y27494D02*
G01X11659Y27269D01*
G01X11915Y27699D02*
G01X11875Y27678D01*
G01X11835Y27637D01*
G01X11814Y27597D01*
G01X11793Y27535D01*
G01X11793Y27433D01*
G01X11814Y27372D01*
G01X11835Y27331D01*
G01X11875Y27290D01*
G01X11915Y27269D01*
G01X11997Y27269D01*
G01X12039Y27290D01*
G01X12080Y27331D01*
G01X12100Y27372D01*
G01X12121Y27433D01*
G01X12121Y27535D01*
G01X12100Y27597D01*
G01X12080Y27637D01*
G01X12039Y27678D01*
G01X11997Y27699D01*
G01X11915Y27699D01*
G01X12256Y27699D02*
G01X12256Y27269D01*
G01X12256Y27699D02*
G01X12419Y27269D01*
G01X12582Y27699D02*
G01X12419Y27269D01*
G01X12582Y27699D02*
G01X12582Y27269D01*
G01X12799Y2821D02*
G01X13228Y2821D01*
G01X12799Y2821D02*
G01X12799Y3005D01*
G01X12819Y3067D01*
G01X12839Y3088D01*
G01X12880Y3107D01*
G01X12942Y3107D01*
G01X12983Y3088D01*
G01X13003Y3067D01*
G01X13024Y3005D01*
G01X13024Y2821D01*
G01X12799Y3448D02*
G01X13085Y3242D01*
G01X13085Y3550D01*
G01X12799Y3448D02*
G01X13228Y3448D01*
G01X22000Y27350D02*
G01X22000Y26921D01*
G01X22000Y27350D02*
G01X22184Y27350D01*
G01X22244Y27330D01*
G01X22265Y27309D01*
G01X22285Y27269D01*
G01X22285Y27207D01*
G01X22265Y27165D01*
G01X22244Y27146D01*
G01X22184Y27125D01*
G01X22000Y27125D01*
G01X22421Y27269D02*
G01X22461Y27288D01*
G01X22523Y27350D01*
G01X22523Y26921D01*
G01X20200Y29400D02*
G01X20364Y28971D01*
G01X20527Y29400D02*
G01X20364Y28971D01*
G01X20948Y29338D02*
G01X20907Y29380D01*
G01X20846Y29400D01*
G01X20764Y29400D01*
G01X20702Y29380D01*
G01X20661Y29338D01*
G01X20661Y29298D01*
G01X20682Y29257D01*
G01X20702Y29236D01*
G01X20743Y29215D01*
G01X20867Y29175D01*
G01X20907Y29155D01*
G01X20927Y29134D01*
G01X20948Y29094D01*
G01X20948Y29032D01*
G01X20907Y28990D01*
G01X20846Y28971D01*
G01X20764Y28971D01*
G01X20702Y28990D01*
G01X20661Y29032D01*
G01X21369Y29338D02*
G01X21328Y29380D01*
G01X21268Y29400D01*
G01X21185Y29400D01*
G01X21125Y29380D01*
G01X21084Y29338D01*
G01X21084Y29298D01*
G01X21103Y29257D01*
G01X21125Y29236D01*
G01X21164Y29215D01*
G01X21288Y29175D01*
G01X21328Y29155D01*
G01X21350Y29134D01*
G01X21369Y29094D01*
G01X21369Y29032D01*
G01X21328Y28990D01*
G01X21268Y28971D01*
G01X21185Y28971D01*
G01X21125Y28990D01*
G01X21084Y29032D01*
G01X21505Y28828D02*
G01X21872Y28828D01*
G01X22007Y29319D02*
G01X22048Y29338D01*
G01X22110Y29400D01*
G01X22110Y28971D01*
G01X10700Y1085D02*
G01X11129Y1249D01*
G01X10700Y1412D02*
G01X11129Y1249D01*
G01X10761Y1834D02*
G01X10720Y1793D01*
G01X10700Y1731D01*
G01X10700Y1650D01*
G01X10720Y1588D01*
G01X10761Y1547D01*
G01X10802Y1547D01*
G01X10843Y1568D01*
G01X10863Y1588D01*
G01X10884Y1629D01*
G01X10925Y1752D01*
G01X10945Y1793D01*
G01X10965Y1813D01*
G01X11006Y1834D01*
G01X11068Y1834D01*
G01X11109Y1793D01*
G01X11129Y1731D01*
G01X11129Y1650D01*
G01X11109Y1588D01*
G01X11068Y1547D01*
G01X10761Y2255D02*
G01X10720Y2214D01*
G01X10700Y2153D01*
G01X10700Y2071D01*
G01X10720Y2010D01*
G01X10761Y1969D01*
G01X10802Y1969D01*
G01X10843Y1989D01*
G01X10863Y2010D01*
G01X10884Y2050D01*
G01X10925Y2173D01*
G01X10945Y2214D01*
G01X10965Y2235D01*
G01X11006Y2255D01*
G01X11068Y2255D01*
G01X11109Y2214D01*
G01X11129Y2153D01*
G01X11129Y2071D01*
G01X11109Y2010D01*
G01X11068Y1969D01*
G01X11272Y2390D02*
G01X11272Y2758D01*
G01X10700Y3098D02*
G01X10986Y2893D01*
G01X10986Y3200D01*
G01X10700Y3098D02*
G01X11129Y3098D01*
G54D28*
G75*
G01X6100Y24600D02*
G02X5500Y24000I-600J0D01*
G01*
G75*
G01X1500Y24000D02*
G02X900Y24600I0J600D01*
G01*
G75*
G01X5500Y29200D02*
G02X6100Y28600I0J-600D01*
G01*
G54D10*
G75*
G01X3960Y20800D02*
G03X3960Y20800I-710J0D01*
G01*
G75*
G01X3234Y9900D02*
G03X3234Y9900I-984J0D01*
G01*
M00*
M02*
