G04 Layer: BottomSolderMaskLayer*
G04 EasyEDA v5.9.42, Mon, 25 Mar 2019 10:54:48 GMT*
G04 64f0bed4ef7340cbb712f4c35e6e27d8*
G04 Gerber Generator version 0.2*
G04 Scale: 100 percent, Rotated: No, Reflected: No *
G04 Dimensions in inches *
G04 leading zeros omitted , absolute positions ,2 integer and 4 decimal *
%FSLAX24Y24*%
%MOIN*%
G90*
G70D02*

%ADD31C,0.088000*%
%ADD32R,0.070000X0.070000*%
%ADD33C,0.070000*%
%ADD34R,0.067700X0.115500*%
%ADD35R,0.047370X0.047370*%
%ADD36C,0.047370*%
%ADD37R,0.082803X0.082803*%
%ADD38C,0.082803*%
%ADD39C,0.067050*%
%ADD40C,0.072960*%
%ADD41R,0.074929X0.074929*%
%ADD42C,0.074929*%

%LPD*%
G54D31*
G01X7450Y27100D03*
G01X8550Y27100D03*
G01X7450Y25100D03*
G01X8550Y25100D03*
G01X7450Y23100D03*
G01X8550Y23100D03*
G01X7450Y21100D03*
G01X8550Y21100D03*
G01X7450Y19100D03*
G01X8550Y19100D03*
G01X7450Y17100D03*
G01X8550Y17100D03*
G01X7450Y15100D03*
G01X8550Y15100D03*
G01X7450Y13100D03*
G01X8550Y13100D03*
G01X7450Y11100D03*
G01X8550Y11100D03*
G01X7450Y9100D03*
G01X8550Y9100D03*
G01X7450Y7100D03*
G01X8550Y7100D03*
G01X7450Y5100D03*
G01X8550Y5100D03*
G01X7450Y3100D03*
G01X8550Y3100D03*
G54D32*
G01X36500Y24600D03*
G54D33*
G01X37500Y24600D03*
G01X36500Y23600D03*
G01X37500Y23600D03*
G01X36500Y22600D03*
G01X37500Y22600D03*
G01X36500Y21600D03*
G01X37500Y21600D03*
G01X36500Y20600D03*
G01X37500Y20600D03*
G01X36500Y19600D03*
G01X37500Y19600D03*
G01X36500Y18600D03*
G01X37500Y18600D03*
G01X36500Y17600D03*
G01X37500Y17600D03*
G01X36500Y16600D03*
G01X37500Y16600D03*
G01X36500Y15600D03*
G01X37500Y15600D03*
G01X36500Y14600D03*
G01X37500Y14600D03*
G01X36500Y13600D03*
G01X37500Y13600D03*
G01X36500Y12600D03*
G01X37500Y12600D03*
G01X36500Y11600D03*
G01X37500Y11600D03*
G01X36500Y10600D03*
G01X37500Y10600D03*
G01X36500Y9600D03*
G01X37500Y9600D03*
G01X36500Y8600D03*
G01X37500Y8600D03*
G01X36500Y7600D03*
G01X37500Y7600D03*
G01X36500Y6600D03*
G01X37500Y6600D03*
G01X36500Y5600D03*
G01X37500Y5600D03*
G54D32*
G01X16500Y2600D03*
G54D33*
G01X16500Y3600D03*
G01X17500Y2600D03*
G01X17500Y3600D03*
G01X18500Y2600D03*
G01X18500Y3600D03*
G01X19500Y2600D03*
G01X19500Y3600D03*
G01X20500Y2600D03*
G01X20500Y3600D03*
G01X21500Y2600D03*
G01X21500Y3600D03*
G01X22500Y2600D03*
G01X22500Y3600D03*
G01X23500Y2600D03*
G01X23500Y3600D03*
G01X24500Y2600D03*
G01X24500Y3600D03*
G01X25500Y2600D03*
G01X25500Y3600D03*
G01X26500Y2600D03*
G01X26500Y3600D03*
G01X27500Y2600D03*
G01X27500Y3600D03*
G01X28500Y2600D03*
G01X28500Y3600D03*
G01X29500Y2600D03*
G01X29500Y3600D03*
G01X30500Y2600D03*
G01X30500Y3600D03*
G01X31500Y2600D03*
G01X31500Y3600D03*
G54D34*
G01X2250Y13899D03*
G01X3250Y13899D03*
G01X4250Y13899D03*
G54D35*
G01X1855Y9900D03*
G54D36*
G01X2643Y9900D03*
G54D31*
G01X4450Y10100D03*
G01X5550Y10100D03*
G54D33*
G01X14500Y29100D03*
G01X15500Y29100D03*
G01X16500Y29100D03*
G01X17500Y29100D03*
G01X18500Y29100D03*
G54D32*
G01X19500Y29100D03*
G54D37*
G01X2500Y6100D03*
G54D38*
G01X3500Y6100D03*
G54D33*
G01X39000Y5600D03*
G01X39000Y6600D03*
G01X39000Y7600D03*
G01X39000Y8600D03*
G01X39000Y9600D03*
G01X39000Y10600D03*
G01X39000Y11600D03*
G01X39000Y12600D03*
G01X39000Y13600D03*
G01X39000Y14600D03*
G01X39000Y15600D03*
G01X39000Y16600D03*
G01X39000Y17600D03*
G01X39000Y18600D03*
G01X39000Y19600D03*
G01X39000Y20600D03*
G01X39000Y21600D03*
G01X39000Y22600D03*
G01X39000Y23600D03*
G54D32*
G01X39000Y24600D03*
G54D33*
G01X33500Y1100D03*
G01X32500Y1100D03*
G01X31500Y1100D03*
G01X30500Y1100D03*
G01X29500Y1100D03*
G01X28500Y1100D03*
G01X27500Y1100D03*
G01X26500Y1100D03*
G01X25500Y1100D03*
G01X24500Y1100D03*
G01X23500Y1100D03*
G01X22500Y1100D03*
G01X21500Y1100D03*
G01X20500Y1100D03*
G01X19500Y1100D03*
G01X18500Y1100D03*
G01X17500Y1100D03*
G01X16500Y1100D03*
G01X15500Y1100D03*
G54D32*
G01X14500Y1100D03*
G54D39*
G01X5000Y25100D03*
G01X5000Y28100D03*
G01X2000Y28100D03*
G01X2000Y25100D03*
G54D33*
G01X34000Y7100D03*
G01X33000Y7100D03*
G54D32*
G01X32000Y7100D03*
G54D33*
G01X34000Y6100D03*
G01X33000Y6100D03*
G54D32*
G01X32000Y6100D03*
G54D33*
G01X34000Y5100D03*
G01X33000Y5100D03*
G54D32*
G01X32000Y5100D03*
G54D40*
G01X11500Y25100D03*
G01X12500Y25100D03*
G01X11500Y24100D03*
G01X12500Y24100D03*
G01X11500Y23100D03*
G01X12500Y23100D03*
G01X11500Y22100D03*
G01X12500Y22100D03*
G01X11500Y21100D03*
G01X12500Y20100D03*
G01X12500Y21100D03*
G01X13500Y20100D03*
G01X13500Y21100D03*
G01X14500Y20100D03*
G01X14500Y21100D03*
G01X15500Y20100D03*
G01X16500Y21100D03*
G01X15500Y21100D03*
G01X16500Y22100D03*
G01X15500Y22100D03*
G01X16500Y23100D03*
G01X15500Y23100D03*
G01X16500Y24100D03*
G01X15500Y24100D03*
G01X16500Y25100D03*
G01X15500Y26100D03*
G01X15500Y25100D03*
G01X14500Y26100D03*
G01X14500Y25100D03*
G01X13500Y26100D03*
G01X13500Y25100D03*
G01X12500Y26100D03*
G54D41*
G01X12500Y17600D03*
G54D42*
G01X13500Y17600D03*
G01X12500Y16600D03*
G01X13500Y16600D03*
G01X12500Y15600D03*
G01X13500Y15600D03*
G01X12500Y14600D03*
G01X13500Y14600D03*
G01X12500Y13600D03*
G01X13500Y13600D03*
G01X12500Y12600D03*
G01X13500Y12600D03*
G01X12500Y11600D03*
G01X13500Y11600D03*
G01X12500Y10600D03*
G01X13500Y10600D03*
G01X12500Y9600D03*
G01X13500Y9600D03*
G01X12500Y8600D03*
G01X13500Y8600D03*
G01X12500Y7600D03*
G01X13500Y7600D03*
G01X12500Y6600D03*
G01X13500Y6600D03*
G01X12500Y5600D03*
G01X13500Y5600D03*
G01X12500Y4600D03*
G01X13500Y4600D03*
G54D41*
G01X23500Y26600D03*
G54D42*
G01X23500Y27600D03*
G01X24500Y26600D03*
G01X24500Y27600D03*
G01X25500Y26600D03*
G01X25500Y27600D03*
G01X26500Y26600D03*
G01X26500Y27600D03*
G01X27500Y26600D03*
G01X27500Y27600D03*
G01X28500Y26600D03*
G01X28500Y27600D03*
G01X29500Y26600D03*
G01X29500Y27600D03*
G01X30500Y26600D03*
G01X30500Y27600D03*
G01X31500Y26600D03*
G01X31500Y27600D03*
G01X32500Y26600D03*
G01X32500Y27600D03*
G01X33500Y26600D03*
G01X33500Y27600D03*
G01X34500Y26600D03*
G01X34500Y27600D03*
G01X35500Y26600D03*
G01X35500Y27600D03*
G01X36500Y26600D03*
G01X36500Y27600D03*
G54D41*
G01X23000Y29100D03*
G54D42*
G01X24000Y29100D03*
G01X25000Y29100D03*
G01X26000Y29100D03*
G01X27000Y29100D03*
G01X28000Y29100D03*
G01X29000Y29100D03*
G01X30000Y29100D03*
G01X31000Y29100D03*
G01X32000Y29100D03*
G01X33000Y29100D03*
G01X34000Y29100D03*
G01X35000Y29100D03*
G01X36000Y29100D03*
G01X37000Y29100D03*
G54D41*
G01X11000Y18100D03*
G54D42*
G01X11000Y17100D03*
G01X11000Y16100D03*
G01X11000Y15100D03*
G01X11000Y14100D03*
G01X11000Y13100D03*
G01X11000Y12100D03*
G01X11000Y11100D03*
G01X11000Y10100D03*
G01X11000Y9100D03*
G01X11000Y8100D03*
G01X11000Y7100D03*
G01X11000Y6100D03*
G01X11000Y5100D03*
G01X11000Y4100D03*
M00*
M02*
