;Layer: Drill PTH
;EasyEDA v5.9.42, Mon, 25 Mar 2019 10:54:48 GMT
;db78ead42679477a8d63b60b64d7050d
;Gerber Generator version 0.2
M48
INCH,LZ,00.0000
;Holesize 1 = 0.012 INCH
T01C0.012
;Holesize 2 = 0.035 INCH
T02C0.035
;Holesize 3 = 0.040 INCH
T03C0.040
;Holesize 4 = 0.043 INCH
T04C0.043
%
G05
G90
T01
X+021435Y+020400
X+022186Y+020177
X+021475Y+017126
X+019965Y+019207
X+021940Y+019159
X+021307Y+020830
X+020506Y+017157
X+019855Y+012865
X+020865Y+022602
T02
X+005000Y+023100
X+005000Y+021100
X+036500Y+024600
X+037500Y+024600
X+036500Y+023600
X+037500Y+023600
X+036500Y+022600
X+037500Y+022600
X+036500Y+021600
X+037500Y+021600
X+036500Y+020600
X+037500Y+020600
X+036500Y+019600
X+037500Y+019600
X+036500Y+018600
X+037500Y+018600
X+036500Y+017600
X+037500Y+017600
X+036500Y+016600
X+037500Y+016600
X+036500Y+015600
X+037500Y+015600
X+036500Y+014600
X+037500Y+014600
X+036500Y+013600
X+037500Y+013600
X+036500Y+012600
X+037500Y+012600
X+036500Y+011600
X+037500Y+011600
X+036500Y+010600
X+037500Y+010600
X+036500Y+009600
X+037500Y+009600
X+036500Y+008600
X+037500Y+008600
X+036500Y+007600
X+037500Y+007600
X+036500Y+006600
X+037500Y+006600
X+036500Y+005600
X+037500Y+005600
X+019500Y+002600
X+019500Y+003600
X+020500Y+002600
X+020500Y+003600
X+021500Y+002600
X+021500Y+003600
X+022500Y+002600
X+022500Y+003600
X+023500Y+002600
X+023500Y+003600
X+024500Y+002600
X+024500Y+003600
X+025500Y+002600
X+025500Y+003600
X+026500Y+002600
X+026500Y+003600
X+027500Y+002600
X+027500Y+003600
X+028500Y+002600
X+028500Y+003600
X+029500Y+002600
X+029500Y+003600
X+030500Y+002600
X+030500Y+003600
X+031500Y+002600
X+031500Y+003600
X+032500Y+002600
X+032500Y+003600
X+033500Y+002600
X+033500Y+003600
X+034500Y+002600
X+034500Y+003600
X+019500Y+026600
X+019500Y+027600
X+020500Y+026600
X+020500Y+027600
X+021500Y+026600
X+021500Y+027600
X+022500Y+026600
X+022500Y+027600
X+023500Y+026600
X+023500Y+027600
X+024500Y+026600
X+024500Y+027600
X+025500Y+026600
X+025500Y+027600
X+026500Y+026600
X+026500Y+027600
X+027500Y+026600
X+027500Y+027600
X+028500Y+026600
X+028500Y+027600
X+029500Y+026600
X+029500Y+027600
X+030500Y+026600
X+030500Y+027600
X+031500Y+026600
X+031500Y+027600
X+032500Y+026600
X+032500Y+027600
X+033500Y+026600
X+033500Y+027600
X+034500Y+026600
X+034500Y+027600
X+012500Y+017600
X+013500Y+017600
X+012500Y+016600
X+013500Y+016600
X+012500Y+015600
X+013500Y+015600
X+012500Y+014600
X+013500Y+014600
X+012500Y+013600
X+013500Y+013600
X+012500Y+012600
X+013500Y+012600
X+012500Y+011600
X+013500Y+011600
X+012500Y+010600
X+013500Y+010600
X+012500Y+009600
X+013500Y+009600
X+012500Y+008600
X+013500Y+008600
X+012500Y+007600
X+013500Y+007600
X+012500Y+006600
X+013500Y+006600
X+012500Y+005600
X+013500Y+005600
X+012500Y+004600
X+013500Y+004600
X+012500Y+003600
X+013500Y+003600
X+012500Y+002600
X+013500Y+002600
T03
X+007450Y+027100
X+008550Y+027100
X+007450Y+025100
X+008550Y+025100
X+007450Y+023100
X+008550Y+023100
X+007450Y+021100
X+008550Y+021100
X+007450Y+019100
X+008550Y+019100
X+007450Y+017100
X+008550Y+017100
X+007450Y+015100
X+008550Y+015100
X+007450Y+013100
X+008550Y+013100
X+007450Y+011100
X+008550Y+011100
X+007450Y+009100
X+008550Y+009100
X+007450Y+007100
X+008550Y+007100
X+007450Y+005100
X+008550Y+005100
X+007450Y+003100
X+008550Y+003100
T04
X+013500Y+027100
X+014500Y+027100
X+015500Y+027100
X+016500Y+027100
M30
