;Layer: Drill PTH
;EasyEDA v5.9.42, Mon, 25 Mar 2019 10:54:48 GMT
;9ec46c63b194450d96f21d754a7bc232
;Gerber Generator version 0.2
M48
INCH,LZ,00.0000
;Holesize 1 = 0.012 INCH
T01C0.012
;Holesize 2 = 0.020 INCH
T02C0.020
;Holesize 3 = 0.024 INCH
T03C0.024
;Holesize 4 = 0.035 INCH
T04C0.035
;Holesize 5 = 0.040 INCH
T05C0.040
;Holesize 6 = 0.044 INCH
T06C0.044
;Holesize 7 = 0.051 INCH
T07C0.051
%
G05
G90
T01
X+023950Y+016150
X+024450Y+016150
X+024950Y+016150
X+025450Y+016150
X+023950Y+015650
X+024500Y+015600
X+025000Y+015600
X+026000Y+015100
X+026000Y+014600
X+026000Y+014100
X+025500Y+014100
X+025000Y+014100
X+024500Y+014100
X+023950Y+015150
X+024950Y+014650
X+025450Y+014650
X+020000Y+020100
X+021950Y+018150
X+021950Y+016150
X+023950Y+018150
X+026000Y+018150
X+028000Y+018150
X+028000Y+016150
X+028000Y+014100
X+028000Y+012100
X+026000Y+012100
X+023950Y+012100
X+021950Y+012100
X+021950Y+014100
X+020000Y+019600
X+021950Y+017150
X+022950Y+018150
X+025000Y+018150
X+027000Y+018150
X+021950Y+015600
X+021950Y+013100
X+022950Y+012100
X+024950Y+012100
X+027025Y+012075
X+028000Y+013100
X+028000Y+015100
X+028000Y+017150
X+021622Y+020255
X+022867Y+025388
X+020486Y+019138
X+020989Y+019609
X+022350Y+018050
X+023975Y+019125
X+028502Y+015634
X+035954Y+014857
X+022475Y+011109
X+022723Y+010038
X+020436Y+017125
X+020761Y+009273
X+025490Y+011096
X+026472Y+011086
X+027975Y+010625
X+028975Y+011125
X+021711Y+010046
X+002250Y+013050
X+003250Y+013050
X+001850Y+009400
X+002650Y+009400
X+005000Y+027350
X+002000Y+024400
X+023985Y+017703
T02
X+001855Y+009900
X+002643Y+009900
T03
X+005000Y+025101G85X+005000Y+025098
X+005000Y+028101G85X+005000Y+028098
X+002000Y+028101G85X+002000Y+028098
X+002000Y+025101G85X+002000Y+025098
T04
X+036500Y+024600
X+037500Y+024600
X+036500Y+023600
X+037500Y+023600
X+036500Y+022600
X+037500Y+022600
X+036500Y+021600
X+037500Y+021600
X+036500Y+020600
X+037500Y+020600
X+036500Y+019600
X+037500Y+019600
X+036500Y+018600
X+037500Y+018600
X+036500Y+017600
X+037500Y+017600
X+036500Y+016600
X+037500Y+016600
X+036500Y+015600
X+037500Y+015600
X+036500Y+014600
X+037500Y+014600
X+036500Y+013600
X+037500Y+013600
X+036500Y+012600
X+037500Y+012600
X+036500Y+011600
X+037500Y+011600
X+036500Y+010600
X+037500Y+010600
X+036500Y+009600
X+037500Y+009600
X+036500Y+008600
X+037500Y+008600
X+036500Y+007600
X+037500Y+007600
X+036500Y+006600
X+037500Y+006600
X+036500Y+005600
X+037500Y+005600
X+019500Y+002600
X+019500Y+003600
X+020500Y+002600
X+020500Y+003600
X+021500Y+002600
X+021500Y+003600
X+022500Y+002600
X+022500Y+003600
X+023500Y+002600
X+023500Y+003600
X+024500Y+002600
X+024500Y+003600
X+025500Y+002600
X+025500Y+003600
X+026500Y+002600
X+026500Y+003600
X+027500Y+002600
X+027500Y+003600
X+028500Y+002600
X+028500Y+003600
X+029500Y+002600
X+029500Y+003600
X+030500Y+002600
X+030500Y+003600
X+031500Y+002600
X+031500Y+003600
X+032500Y+002600
X+032500Y+003600
X+033500Y+002600
X+033500Y+003600
X+034500Y+002600
X+034500Y+003600
X+019500Y+026600
X+019500Y+027600
X+020500Y+026600
X+020500Y+027600
X+021500Y+026600
X+021500Y+027600
X+022500Y+026600
X+022500Y+027600
X+023500Y+026600
X+023500Y+027600
X+024500Y+026600
X+024500Y+027600
X+025500Y+026600
X+025500Y+027600
X+026500Y+026600
X+026500Y+027600
X+027500Y+026600
X+027500Y+027600
X+028500Y+026600
X+028500Y+027600
X+029500Y+026600
X+029500Y+027600
X+030500Y+026600
X+030500Y+027600
X+031500Y+026600
X+031500Y+027600
X+032500Y+026600
X+032500Y+027600
X+033500Y+026600
X+033500Y+027600
X+034500Y+026600
X+034500Y+027600
X+012500Y+017600
X+013500Y+017600
X+012500Y+016600
X+013500Y+016600
X+012500Y+015600
X+013500Y+015600
X+012500Y+014600
X+013500Y+014600
X+012500Y+013600
X+013500Y+013600
X+012500Y+012600
X+013500Y+012600
X+012500Y+011600
X+013500Y+011600
X+012500Y+010600
X+013500Y+010600
X+012500Y+009600
X+013500Y+009600
X+012500Y+008600
X+013500Y+008600
X+012500Y+007600
X+013500Y+007600
X+012500Y+006600
X+013500Y+006600
X+012500Y+005600
X+013500Y+005600
X+012500Y+004600
X+013500Y+004600
X+012500Y+003600
X+013500Y+003600
X+012500Y+002600
X+013500Y+002600
X+013000Y+022600
X+013000Y+023600
X+013000Y+024600
X+013000Y+025600
X+013000Y+026600
X+013000Y+027600
X+036500Y+029100
X+035500Y+029100
X+034500Y+029100
X+033500Y+029100
X+032500Y+029100
X+031500Y+029100
X+030500Y+029100
X+029500Y+029100
X+028500Y+029100
X+027500Y+029100
X+026500Y+029100
X+025500Y+029100
X+024500Y+029100
X+023500Y+029100
X+022500Y+029100
X+021500Y+029100
X+020500Y+029100
X+019500Y+029100
X+018500Y+029100
X+017500Y+029100
X+039000Y+005600
X+039000Y+006600
X+039000Y+007600
X+039000Y+008600
X+039000Y+009600
X+039000Y+010600
X+039000Y+011600
X+039000Y+012600
X+039000Y+013600
X+039000Y+014600
X+039000Y+015600
X+039000Y+016600
X+039000Y+017600
X+039000Y+018600
X+039000Y+019600
X+039000Y+020600
X+039000Y+021600
X+039000Y+022600
X+039000Y+023600
X+039000Y+024600
X+036500Y+001100
X+035500Y+001100
X+034500Y+001100
X+033500Y+001100
X+032500Y+001100
X+031500Y+001100
X+030500Y+001100
X+029500Y+001100
X+028500Y+001100
X+027500Y+001100
X+026500Y+001100
X+025500Y+001100
X+024500Y+001100
X+023500Y+001100
X+022500Y+001100
X+021500Y+001100
X+020500Y+001100
X+019500Y+001100
X+018500Y+001100
X+017500Y+001100
X+011000Y+001600
X+011000Y+002600
X+011000Y+003600
X+011000Y+004600
X+011000Y+005600
X+011000Y+006600
X+011000Y+007600
X+011000Y+008600
X+011000Y+009600
X+011000Y+010600
X+011000Y+011600
X+011000Y+012600
X+011000Y+013600
X+011000Y+014600
X+011000Y+015600
X+011000Y+016600
X+011000Y+017600
X+011000Y+018600
X+011000Y+019600
X+011000Y+020600
T05
X+007450Y+027100
X+008550Y+027100
X+007450Y+025100
X+008550Y+025100
X+007450Y+023100
X+008550Y+023100
X+007450Y+021100
X+008550Y+021100
X+007450Y+019100
X+008550Y+019100
X+007450Y+017100
X+008550Y+017100
X+007450Y+015100
X+008550Y+015100
X+007450Y+013100
X+008550Y+013100
X+007450Y+011100
X+008550Y+011100
X+007450Y+009100
X+008550Y+009100
X+007450Y+007100
X+008550Y+007100
X+007450Y+005100
X+008550Y+005100
X+007450Y+003100
X+008550Y+003100
X+004450Y+010100
X+005550Y+010100
T06
X+002250Y+013899
X+003250Y+013899
X+004250Y+013899
T07
X+002500Y+006100
X+003500Y+006100
M30
