G04 Layer: TopSilkLayer*
G04 EasyEDA v5.9.42, Mon, 25 Mar 2019 10:54:48 GMT*
G04 9ec46c63b194450d96f21d754a7bc232*
G04 Gerber Generator version 0.2*
G04 Scale: 100 percent, Rotated: No, Reflected: No *
G04 Dimensions in inches *
G04 leading zeros omitted , absolute positions ,2 integer and 4 decimal *
%FSLAX24Y24*%
%MOIN*%
G90*
G70D02*

%ADD10C,0.010000*%
%ADD11C,0.008000*%
%ADD23C,0.007870*%
%ADD24C,0.007992*%
%ADD25C,0.005910*%
%ADD26C,0.006000*%
%ADD27C,0.007874*%

%LPD*%
G54D23*
G01X20224Y20440D02*
G01X30289Y20440D01*
G01X30289Y9810D01*
G01X19659Y9810D01*
G01X19659Y19875D01*
G01X20224Y20440D01*
G54D10*
G01X8000Y27350D02*
G01X8000Y26850D01*
G01X6950Y27600D02*
G01X9050Y27600D01*
G01X9050Y27600D02*
G01X9050Y26600D01*
G01X9050Y26600D02*
G01X6950Y26600D01*
G01X6950Y26600D02*
G01X6950Y27600D01*
G01X8000Y25350D02*
G01X8000Y24850D01*
G01X6950Y25600D02*
G01X9050Y25600D01*
G01X9050Y25600D02*
G01X9050Y24600D01*
G01X9050Y24600D02*
G01X6950Y24600D01*
G01X6950Y24600D02*
G01X6950Y25600D01*
G01X8000Y23350D02*
G01X8000Y22850D01*
G01X6950Y23600D02*
G01X9050Y23600D01*
G01X9050Y23600D02*
G01X9050Y22600D01*
G01X9050Y22600D02*
G01X6950Y22600D01*
G01X6950Y22600D02*
G01X6950Y23600D01*
G01X8000Y21350D02*
G01X8000Y20850D01*
G01X6950Y21600D02*
G01X9050Y21600D01*
G01X9050Y21600D02*
G01X9050Y20600D01*
G01X9050Y20600D02*
G01X6950Y20600D01*
G01X6950Y20600D02*
G01X6950Y21600D01*
G01X8000Y19350D02*
G01X8000Y18850D01*
G01X6950Y19600D02*
G01X9050Y19600D01*
G01X9050Y19600D02*
G01X9050Y18600D01*
G01X9050Y18600D02*
G01X6950Y18600D01*
G01X6950Y18600D02*
G01X6950Y19600D01*
G01X8000Y17350D02*
G01X8000Y16850D01*
G01X6950Y17600D02*
G01X9050Y17600D01*
G01X9050Y17600D02*
G01X9050Y16600D01*
G01X9050Y16600D02*
G01X6950Y16600D01*
G01X6950Y16600D02*
G01X6950Y17600D01*
G01X8000Y15350D02*
G01X8000Y14850D01*
G01X6950Y15600D02*
G01X9050Y15600D01*
G01X9050Y15600D02*
G01X9050Y14600D01*
G01X9050Y14600D02*
G01X6950Y14600D01*
G01X6950Y14600D02*
G01X6950Y15600D01*
G01X8000Y13350D02*
G01X8000Y12850D01*
G01X6950Y13600D02*
G01X9050Y13600D01*
G01X9050Y13600D02*
G01X9050Y12600D01*
G01X9050Y12600D02*
G01X6950Y12600D01*
G01X6950Y12600D02*
G01X6950Y13600D01*
G01X8000Y11350D02*
G01X8000Y10850D01*
G01X6950Y11600D02*
G01X9050Y11600D01*
G01X9050Y11600D02*
G01X9050Y10600D01*
G01X9050Y10600D02*
G01X6950Y10600D01*
G01X6950Y10600D02*
G01X6950Y11600D01*
G01X8000Y9350D02*
G01X8000Y8850D01*
G01X6950Y9600D02*
G01X9050Y9600D01*
G01X9050Y9600D02*
G01X9050Y8600D01*
G01X9050Y8600D02*
G01X6950Y8600D01*
G01X6950Y8600D02*
G01X6950Y9600D01*
G01X8000Y7350D02*
G01X8000Y6850D01*
G01X6950Y7600D02*
G01X9050Y7600D01*
G01X9050Y7600D02*
G01X9050Y6600D01*
G01X9050Y6600D02*
G01X6950Y6600D01*
G01X6950Y6600D02*
G01X6950Y7600D01*
G01X8000Y5350D02*
G01X8000Y4850D01*
G01X6950Y5600D02*
G01X9050Y5600D01*
G01X9050Y5600D02*
G01X9050Y4600D01*
G01X9050Y4600D02*
G01X6950Y4600D01*
G01X6950Y4600D02*
G01X6950Y5600D01*
G01X8000Y3350D02*
G01X8000Y2850D01*
G01X6950Y3600D02*
G01X9050Y3600D01*
G01X9050Y3600D02*
G01X9050Y2600D01*
G01X9050Y2600D02*
G01X6950Y2600D01*
G01X6950Y2600D02*
G01X6950Y3600D01*
G54D11*
G01X38000Y25100D02*
G01X36000Y25100D01*
G01X36000Y5100D01*
G01X38000Y5100D01*
G01X38000Y25100D01*
G01X19000Y4100D02*
G01X19000Y2100D01*
G01X35000Y2100D01*
G01X35000Y4100D01*
G01X19000Y4100D01*
G01X19000Y28100D02*
G01X19000Y26100D01*
G01X35000Y26100D01*
G01X35000Y28100D01*
G01X19000Y28100D01*
G01X14000Y18100D02*
G01X12000Y18100D01*
G01X12000Y2100D01*
G01X14000Y2100D01*
G01X14000Y18100D01*
G54D10*
G01X1200Y15900D02*
G01X5300Y15900D01*
G01X5300Y22150D02*
G01X1200Y22150D01*
G01X5300Y15900D02*
G01X5300Y20800D01*
G01X5300Y20800D02*
G01X4950Y20800D01*
G01X4950Y20800D02*
G01X4950Y21400D01*
G01X4950Y21400D02*
G01X5300Y21400D01*
G01X5300Y21400D02*
G01X5300Y22150D01*
G01X1200Y15900D02*
G01X1200Y20800D01*
G01X1200Y20800D02*
G01X1550Y20800D01*
G01X1550Y20800D02*
G01X1550Y21400D01*
G01X1550Y21400D02*
G01X1200Y21400D01*
G01X1200Y21400D02*
G01X1200Y22150D01*
G01X1450Y16150D02*
G01X5050Y16150D01*
G01X5050Y19400D02*
G01X5050Y16150D01*
G01X5050Y19400D02*
G01X1450Y19400D01*
G01X1450Y16150D02*
G01X1450Y19400D01*
G01X5000Y10350D02*
G01X5000Y9850D01*
G01X3950Y10600D02*
G01X6050Y10600D01*
G01X6050Y10600D02*
G01X6050Y9600D01*
G01X6050Y9600D02*
G01X3950Y9600D01*
G01X3950Y9600D02*
G01X3950Y10600D01*
G54D11*
G01X13500Y27350D02*
G01X13500Y28100D01*
G01X12500Y28100D01*
G01X12500Y22100D01*
G01X13500Y22100D01*
G54D24*
G01X13500Y22100D02*
G01X13500Y27350D01*
G54D11*
G01X4000Y6600D02*
G01X4000Y5600D01*
G01X2000Y5600D01*
G01X2000Y6600D01*
G01X2750Y6600D01*
G54D24*
G01X4000Y6600D02*
G01X2750Y6600D01*
G54D11*
G01X37000Y29600D02*
G01X37000Y29650D01*
G01X17000Y29650D01*
G01X17000Y28600D01*
G01X37000Y28600D01*
G01X37000Y29600D01*
G01X39500Y5100D02*
G01X39550Y5100D01*
G01X39550Y25100D01*
G01X38500Y25100D01*
G01X38500Y5100D01*
G01X39500Y5100D01*
G01X37000Y1600D02*
G01X37000Y1650D01*
G01X17000Y1650D01*
G01X17000Y600D01*
G01X37000Y600D01*
G01X37000Y1600D01*
G01X11500Y1100D02*
G01X11550Y1100D01*
G01X11550Y21100D01*
G01X10500Y21100D01*
G01X10500Y1100D01*
G01X11500Y1100D01*
G54D25*
G01X5500Y29200D02*
G01X900Y29200D01*
G01X900Y24600D01*
G01X6100Y24600D02*
G01X6100Y28600D01*
G01X5500Y24000D02*
G01X1500Y24000D01*
G54D26*
G01X24900Y21796D02*
G01X24900Y21367D01*
G01X25342Y21694D02*
G01X25321Y21734D01*
G01X25280Y21776D01*
G01X25239Y21796D01*
G01X25157Y21796D01*
G01X25117Y21776D01*
G01X25076Y21734D01*
G01X25055Y21694D01*
G01X25035Y21632D01*
G01X25035Y21530D01*
G01X25055Y21469D01*
G01X25076Y21428D01*
G01X25117Y21388D01*
G01X25157Y21367D01*
G01X25239Y21367D01*
G01X25280Y21388D01*
G01X25321Y21428D01*
G01X25342Y21469D01*
G01X25477Y21715D02*
G01X25518Y21734D01*
G01X25578Y21796D01*
G01X25578Y21367D01*
G01X8306Y28027D02*
G01X8285Y28067D01*
G01X8244Y28109D01*
G01X8205Y28128D01*
G01X8122Y28128D01*
G01X8081Y28109D01*
G01X8040Y28067D01*
G01X8019Y28027D01*
G01X8000Y27965D01*
G01X8000Y27863D01*
G01X8019Y27802D01*
G01X8040Y27761D01*
G01X8081Y27719D01*
G01X8122Y27700D01*
G01X8205Y27700D01*
G01X8244Y27719D01*
G01X8285Y27761D01*
G01X8306Y27802D01*
G01X8442Y28048D02*
G01X8482Y28067D01*
G01X8543Y28128D01*
G01X8543Y27700D01*
G01X8306Y26027D02*
G01X8285Y26067D01*
G01X8244Y26109D01*
G01X8205Y26128D01*
G01X8122Y26128D01*
G01X8081Y26109D01*
G01X8040Y26067D01*
G01X8019Y26027D01*
G01X8000Y25965D01*
G01X8000Y25863D01*
G01X8019Y25802D01*
G01X8040Y25761D01*
G01X8081Y25719D01*
G01X8122Y25700D01*
G01X8205Y25700D01*
G01X8244Y25719D01*
G01X8285Y25761D01*
G01X8306Y25802D01*
G01X8461Y26027D02*
G01X8461Y26048D01*
G01X8482Y26088D01*
G01X8502Y26109D01*
G01X8543Y26128D01*
G01X8626Y26128D01*
G01X8667Y26109D01*
G01X8686Y26088D01*
G01X8707Y26048D01*
G01X8707Y26007D01*
G01X8686Y25965D01*
G01X8646Y25903D01*
G01X8442Y25700D01*
G01X8727Y25700D01*
G01X8306Y24027D02*
G01X8285Y24067D01*
G01X8244Y24109D01*
G01X8205Y24128D01*
G01X8122Y24128D01*
G01X8081Y24109D01*
G01X8040Y24067D01*
G01X8019Y24027D01*
G01X8000Y23965D01*
G01X8000Y23863D01*
G01X8019Y23802D01*
G01X8040Y23761D01*
G01X8081Y23719D01*
G01X8122Y23700D01*
G01X8205Y23700D01*
G01X8244Y23719D01*
G01X8285Y23761D01*
G01X8306Y23802D01*
G01X8482Y24128D02*
G01X8707Y24128D01*
G01X8585Y23965D01*
G01X8646Y23965D01*
G01X8686Y23944D01*
G01X8707Y23925D01*
G01X8727Y23863D01*
G01X8727Y23823D01*
G01X8707Y23761D01*
G01X8667Y23719D01*
G01X8605Y23700D01*
G01X8543Y23700D01*
G01X8482Y23719D01*
G01X8461Y23740D01*
G01X8442Y23782D01*
G01X8306Y22027D02*
G01X8285Y22067D01*
G01X8244Y22109D01*
G01X8205Y22128D01*
G01X8122Y22128D01*
G01X8081Y22109D01*
G01X8040Y22067D01*
G01X8019Y22027D01*
G01X8000Y21965D01*
G01X8000Y21863D01*
G01X8019Y21802D01*
G01X8040Y21761D01*
G01X8081Y21719D01*
G01X8122Y21700D01*
G01X8205Y21700D01*
G01X8244Y21719D01*
G01X8285Y21761D01*
G01X8306Y21802D01*
G01X8646Y22128D02*
G01X8442Y21842D01*
G01X8748Y21842D01*
G01X8646Y22128D02*
G01X8646Y21700D01*
G01X8306Y20027D02*
G01X8285Y20067D01*
G01X8244Y20109D01*
G01X8205Y20128D01*
G01X8122Y20128D01*
G01X8081Y20109D01*
G01X8040Y20067D01*
G01X8019Y20027D01*
G01X8000Y19965D01*
G01X8000Y19863D01*
G01X8019Y19802D01*
G01X8040Y19761D01*
G01X8081Y19719D01*
G01X8122Y19700D01*
G01X8205Y19700D01*
G01X8244Y19719D01*
G01X8285Y19761D01*
G01X8306Y19802D01*
G01X8686Y20128D02*
G01X8482Y20128D01*
G01X8461Y19944D01*
G01X8482Y19965D01*
G01X8543Y19986D01*
G01X8605Y19986D01*
G01X8667Y19965D01*
G01X8707Y19925D01*
G01X8727Y19863D01*
G01X8727Y19823D01*
G01X8707Y19761D01*
G01X8667Y19719D01*
G01X8605Y19700D01*
G01X8543Y19700D01*
G01X8482Y19719D01*
G01X8461Y19740D01*
G01X8442Y19782D01*
G01X8306Y18027D02*
G01X8285Y18067D01*
G01X8244Y18109D01*
G01X8205Y18128D01*
G01X8122Y18128D01*
G01X8081Y18109D01*
G01X8040Y18067D01*
G01X8019Y18027D01*
G01X8000Y17965D01*
G01X8000Y17863D01*
G01X8019Y17802D01*
G01X8040Y17761D01*
G01X8081Y17719D01*
G01X8122Y17700D01*
G01X8205Y17700D01*
G01X8244Y17719D01*
G01X8285Y17761D01*
G01X8306Y17802D01*
G01X8686Y18067D02*
G01X8667Y18109D01*
G01X8605Y18128D01*
G01X8564Y18128D01*
G01X8502Y18109D01*
G01X8461Y18048D01*
G01X8442Y17944D01*
G01X8442Y17842D01*
G01X8461Y17761D01*
G01X8502Y17719D01*
G01X8564Y17700D01*
G01X8585Y17700D01*
G01X8646Y17719D01*
G01X8686Y17761D01*
G01X8707Y17823D01*
G01X8707Y17842D01*
G01X8686Y17903D01*
G01X8646Y17944D01*
G01X8585Y17965D01*
G01X8564Y17965D01*
G01X8502Y17944D01*
G01X8461Y17903D01*
G01X8442Y17842D01*
G01X8306Y16026D02*
G01X8285Y16067D01*
G01X8244Y16109D01*
G01X8205Y16128D01*
G01X8122Y16128D01*
G01X8081Y16109D01*
G01X8040Y16067D01*
G01X8019Y16026D01*
G01X8000Y15965D01*
G01X8000Y15863D01*
G01X8019Y15801D01*
G01X8040Y15761D01*
G01X8081Y15719D01*
G01X8122Y15700D01*
G01X8205Y15700D01*
G01X8244Y15719D01*
G01X8285Y15761D01*
G01X8306Y15801D01*
G01X8727Y16128D02*
G01X8523Y15700D01*
G01X8442Y16128D02*
G01X8727Y16128D01*
G01X8306Y14026D02*
G01X8285Y14067D01*
G01X8244Y14109D01*
G01X8205Y14128D01*
G01X8122Y14128D01*
G01X8081Y14109D01*
G01X8040Y14067D01*
G01X8019Y14026D01*
G01X8000Y13965D01*
G01X8000Y13863D01*
G01X8019Y13801D01*
G01X8040Y13761D01*
G01X8081Y13719D01*
G01X8122Y13700D01*
G01X8205Y13700D01*
G01X8244Y13719D01*
G01X8285Y13761D01*
G01X8306Y13801D01*
G01X8543Y14128D02*
G01X8482Y14109D01*
G01X8461Y14067D01*
G01X8461Y14026D01*
G01X8482Y13986D01*
G01X8523Y13965D01*
G01X8605Y13944D01*
G01X8667Y13925D01*
G01X8707Y13884D01*
G01X8727Y13842D01*
G01X8727Y13782D01*
G01X8707Y13740D01*
G01X8686Y13719D01*
G01X8626Y13700D01*
G01X8543Y13700D01*
G01X8482Y13719D01*
G01X8461Y13740D01*
G01X8442Y13782D01*
G01X8442Y13842D01*
G01X8461Y13884D01*
G01X8502Y13925D01*
G01X8564Y13944D01*
G01X8646Y13965D01*
G01X8686Y13986D01*
G01X8707Y14026D01*
G01X8707Y14067D01*
G01X8686Y14109D01*
G01X8626Y14128D01*
G01X8543Y14128D01*
G01X8306Y12026D02*
G01X8285Y12067D01*
G01X8244Y12109D01*
G01X8205Y12128D01*
G01X8122Y12128D01*
G01X8081Y12109D01*
G01X8040Y12067D01*
G01X8019Y12026D01*
G01X8000Y11965D01*
G01X8000Y11863D01*
G01X8019Y11801D01*
G01X8040Y11761D01*
G01X8081Y11719D01*
G01X8122Y11700D01*
G01X8205Y11700D01*
G01X8244Y11719D01*
G01X8285Y11761D01*
G01X8306Y11801D01*
G01X8707Y11986D02*
G01X8686Y11925D01*
G01X8646Y11884D01*
G01X8585Y11863D01*
G01X8564Y11863D01*
G01X8502Y11884D01*
G01X8461Y11925D01*
G01X8442Y11986D01*
G01X8442Y12007D01*
G01X8461Y12067D01*
G01X8502Y12109D01*
G01X8564Y12128D01*
G01X8585Y12128D01*
G01X8646Y12109D01*
G01X8686Y12067D01*
G01X8707Y11986D01*
G01X8707Y11884D01*
G01X8686Y11782D01*
G01X8646Y11719D01*
G01X8585Y11700D01*
G01X8543Y11700D01*
G01X8482Y11719D01*
G01X8461Y11761D01*
G01X8306Y10026D02*
G01X8285Y10067D01*
G01X8244Y10109D01*
G01X8205Y10128D01*
G01X8122Y10128D01*
G01X8081Y10109D01*
G01X8040Y10067D01*
G01X8019Y10026D01*
G01X8000Y9965D01*
G01X8000Y9863D01*
G01X8019Y9801D01*
G01X8040Y9761D01*
G01X8081Y9719D01*
G01X8122Y9700D01*
G01X8205Y9700D01*
G01X8244Y9719D01*
G01X8285Y9761D01*
G01X8306Y9801D01*
G01X8442Y10048D02*
G01X8482Y10067D01*
G01X8543Y10128D01*
G01X8543Y9700D01*
G01X8802Y10128D02*
G01X8739Y10109D01*
G01X8700Y10048D01*
G01X8678Y9944D01*
G01X8678Y9884D01*
G01X8700Y9782D01*
G01X8739Y9719D01*
G01X8802Y9700D01*
G01X8843Y9700D01*
G01X8903Y9719D01*
G01X8944Y9782D01*
G01X8964Y9884D01*
G01X8964Y9944D01*
G01X8944Y10048D01*
G01X8903Y10109D01*
G01X8843Y10128D01*
G01X8802Y10128D01*
G01X8306Y8026D02*
G01X8285Y8067D01*
G01X8244Y8109D01*
G01X8205Y8128D01*
G01X8122Y8128D01*
G01X8081Y8109D01*
G01X8040Y8067D01*
G01X8019Y8026D01*
G01X8000Y7965D01*
G01X8000Y7863D01*
G01X8019Y7801D01*
G01X8040Y7761D01*
G01X8081Y7719D01*
G01X8122Y7700D01*
G01X8205Y7700D01*
G01X8244Y7719D01*
G01X8285Y7761D01*
G01X8306Y7801D01*
G01X8442Y8048D02*
G01X8482Y8067D01*
G01X8543Y8128D01*
G01X8543Y7700D01*
G01X8678Y8048D02*
G01X8719Y8067D01*
G01X8781Y8128D01*
G01X8781Y7700D01*
G01X8306Y6026D02*
G01X8285Y6067D01*
G01X8244Y6109D01*
G01X8205Y6128D01*
G01X8122Y6128D01*
G01X8081Y6109D01*
G01X8040Y6067D01*
G01X8019Y6026D01*
G01X8000Y5965D01*
G01X8000Y5863D01*
G01X8019Y5801D01*
G01X8040Y5761D01*
G01X8081Y5719D01*
G01X8122Y5700D01*
G01X8205Y5700D01*
G01X8244Y5719D01*
G01X8285Y5761D01*
G01X8306Y5801D01*
G01X8442Y6048D02*
G01X8482Y6067D01*
G01X8543Y6128D01*
G01X8543Y5700D01*
G01X8700Y6026D02*
G01X8700Y6048D01*
G01X8719Y6088D01*
G01X8739Y6109D01*
G01X8781Y6128D01*
G01X8863Y6128D01*
G01X8903Y6109D01*
G01X8925Y6088D01*
G01X8944Y6048D01*
G01X8944Y6007D01*
G01X8925Y5965D01*
G01X8884Y5903D01*
G01X8678Y5700D01*
G01X8964Y5700D01*
G01X8306Y4026D02*
G01X8285Y4067D01*
G01X8244Y4109D01*
G01X8205Y4128D01*
G01X8122Y4128D01*
G01X8081Y4109D01*
G01X8040Y4067D01*
G01X8019Y4026D01*
G01X8000Y3965D01*
G01X8000Y3863D01*
G01X8019Y3801D01*
G01X8040Y3761D01*
G01X8081Y3719D01*
G01X8122Y3700D01*
G01X8205Y3700D01*
G01X8244Y3719D01*
G01X8285Y3761D01*
G01X8306Y3801D01*
G01X8442Y4048D02*
G01X8482Y4067D01*
G01X8543Y4128D01*
G01X8543Y3700D01*
G01X8719Y4128D02*
G01X8944Y4128D01*
G01X8822Y3965D01*
G01X8884Y3965D01*
G01X8925Y3944D01*
G01X8944Y3925D01*
G01X8964Y3863D01*
G01X8964Y3823D01*
G01X8944Y3761D01*
G01X8903Y3719D01*
G01X8843Y3700D01*
G01X8781Y3700D01*
G01X8719Y3719D01*
G01X8700Y3740D01*
G01X8678Y3782D01*
G01X36849Y4076D02*
G01X37278Y4076D01*
G01X36849Y4076D02*
G01X36849Y4260D01*
G01X36869Y4321D01*
G01X36889Y4342D01*
G01X36930Y4362D01*
G01X36992Y4362D01*
G01X37033Y4342D01*
G01X37053Y4321D01*
G01X37074Y4260D01*
G01X37074Y4076D01*
G01X36951Y4518D02*
G01X36930Y4518D01*
G01X36889Y4538D01*
G01X36869Y4559D01*
G01X36849Y4600D01*
G01X36849Y4681D01*
G01X36869Y4722D01*
G01X36889Y4743D01*
G01X36930Y4763D01*
G01X36971Y4763D01*
G01X37012Y4743D01*
G01X37074Y4702D01*
G01X37278Y4497D01*
G01X37278Y4784D01*
G01X17850Y3250D02*
G01X17850Y2821D01*
G01X17850Y3250D02*
G01X18034Y3250D01*
G01X18094Y3230D01*
G01X18115Y3209D01*
G01X18135Y3169D01*
G01X18135Y3107D01*
G01X18115Y3065D01*
G01X18094Y3046D01*
G01X18034Y3025D01*
G01X17850Y3025D01*
G01X18311Y3250D02*
G01X18536Y3250D01*
G01X18414Y3086D01*
G01X18476Y3086D01*
G01X18517Y3065D01*
G01X18536Y3046D01*
G01X18557Y2984D01*
G01X18557Y2944D01*
G01X18536Y2882D01*
G01X18496Y2840D01*
G01X18435Y2821D01*
G01X18373Y2821D01*
G01X18311Y2840D01*
G01X18292Y2861D01*
G01X18271Y2903D01*
G01X35300Y27300D02*
G01X35300Y26871D01*
G01X35300Y27300D02*
G01X35484Y27300D01*
G01X35544Y27280D01*
G01X35565Y27259D01*
G01X35585Y27219D01*
G01X35585Y27157D01*
G01X35565Y27115D01*
G01X35544Y27096D01*
G01X35484Y27075D01*
G01X35300Y27075D01*
G01X35721Y27219D02*
G01X35761Y27238D01*
G01X35823Y27300D01*
G01X35823Y26871D01*
G01X12849Y1071D02*
G01X13278Y1071D01*
G01X12849Y1071D02*
G01X12849Y1255D01*
G01X12869Y1317D01*
G01X12889Y1338D01*
G01X12930Y1357D01*
G01X12992Y1357D01*
G01X13033Y1338D01*
G01X13053Y1317D01*
G01X13074Y1255D01*
G01X13074Y1071D01*
G01X12849Y1698D02*
G01X13135Y1492D01*
G01X13135Y1800D01*
G01X12849Y1698D02*
G01X13278Y1698D01*
G01X3250Y22678D02*
G01X3250Y22373D01*
G01X3269Y22311D01*
G01X3311Y22269D01*
G01X3373Y22250D01*
G01X3413Y22250D01*
G01X3475Y22269D01*
G01X3515Y22311D01*
G01X3536Y22373D01*
G01X3536Y22678D01*
G01X3671Y22598D02*
G01X3711Y22617D01*
G01X3773Y22678D01*
G01X3773Y22250D01*
G01X1573Y19609D02*
G01X1500Y19417D01*
G01X1573Y19609D02*
G01X1644Y19417D01*
G01X1526Y19482D02*
G01X1617Y19482D01*
G01X1705Y19573D02*
G01X1723Y19582D01*
G01X1751Y19609D01*
G01X1751Y19417D01*
G01X1938Y19609D02*
G01X1846Y19417D01*
G01X1811Y19609D02*
G01X1938Y19609D01*
G01X2015Y19455D02*
G01X2007Y19444D01*
G01X1998Y19455D01*
G01X2007Y19463D01*
G01X2015Y19455D01*
G01X2015Y19436D01*
G01X1998Y19417D01*
G01X2184Y19609D02*
G01X2094Y19609D01*
G01X2084Y19527D01*
G01X2094Y19536D01*
G01X2121Y19544D01*
G01X2148Y19544D01*
G01X2176Y19536D01*
G01X2194Y19517D01*
G01X2203Y19490D01*
G01X2203Y19473D01*
G01X2194Y19444D01*
G01X2176Y19427D01*
G01X2148Y19417D01*
G01X2121Y19417D01*
G01X2094Y19427D01*
G01X2084Y19436D01*
G01X2076Y19455D01*
G01X2263Y19544D02*
G01X2263Y19417D01*
G01X2263Y19509D02*
G01X2290Y19536D01*
G01X2309Y19544D01*
G01X2336Y19544D01*
G01X2355Y19536D01*
G01X2363Y19509D01*
G01X2363Y19417D01*
G01X2363Y19509D02*
G01X2390Y19536D01*
G01X2409Y19544D01*
G01X2436Y19544D01*
G01X2455Y19536D01*
G01X2463Y19509D01*
G01X2463Y19417D01*
G01X2523Y19544D02*
G01X2523Y19417D01*
G01X2523Y19509D02*
G01X2551Y19536D01*
G01X2569Y19544D01*
G01X2596Y19544D01*
G01X2615Y19536D01*
G01X2623Y19509D01*
G01X2623Y19417D01*
G01X2623Y19509D02*
G01X2651Y19536D01*
G01X2669Y19544D01*
G01X2696Y19544D01*
G01X2715Y19536D01*
G01X2723Y19509D01*
G01X2723Y19417D01*
G01X2156Y11354D02*
G01X2135Y11395D01*
G01X2094Y11436D01*
G01X2054Y11456D01*
G01X1972Y11456D01*
G01X1931Y11436D01*
G01X1890Y11395D01*
G01X1869Y11354D01*
G01X1849Y11293D01*
G01X1849Y11191D01*
G01X1869Y11129D01*
G01X1890Y11088D01*
G01X1931Y11047D01*
G01X1972Y11027D01*
G01X2054Y11027D01*
G01X2094Y11047D01*
G01X2135Y11088D01*
G01X2156Y11129D01*
G01X2291Y11375D02*
G01X2332Y11395D01*
G01X2393Y11456D01*
G01X2393Y11027D01*
G01X2733Y11456D02*
G01X2528Y11170D01*
G01X2835Y11170D01*
G01X2733Y11456D02*
G01X2733Y11027D01*
G54D27*
G01X976Y10927D02*
G01X976Y10273D01*
G01X649Y10600D02*
G01X1304Y10600D01*
G54D26*
G01X5306Y11026D02*
G01X5285Y11067D01*
G01X5244Y11109D01*
G01X5205Y11128D01*
G01X5122Y11128D01*
G01X5081Y11109D01*
G01X5040Y11067D01*
G01X5019Y11026D01*
G01X5000Y10965D01*
G01X5000Y10863D01*
G01X5019Y10801D01*
G01X5040Y10761D01*
G01X5081Y10719D01*
G01X5122Y10700D01*
G01X5205Y10700D01*
G01X5244Y10719D01*
G01X5285Y10761D01*
G01X5306Y10801D01*
G01X5442Y11048D02*
G01X5482Y11067D01*
G01X5543Y11128D01*
G01X5543Y10700D01*
G01X5925Y11128D02*
G01X5719Y11128D01*
G01X5700Y10944D01*
G01X5719Y10965D01*
G01X5781Y10986D01*
G01X5843Y10986D01*
G01X5903Y10965D01*
G01X5944Y10925D01*
G01X5964Y10863D01*
G01X5964Y10823D01*
G01X5944Y10761D01*
G01X5903Y10719D01*
G01X5843Y10700D01*
G01X5781Y10700D01*
G01X5719Y10719D01*
G01X5700Y10740D01*
G01X5678Y10782D01*
G01X12849Y20375D02*
G01X13176Y20375D01*
G01X13237Y20353D01*
G01X13258Y20334D01*
G01X13278Y20292D01*
G01X13278Y20252D01*
G01X13258Y20211D01*
G01X13237Y20190D01*
G01X13176Y20169D01*
G01X13135Y20169D01*
G01X12849Y20653D02*
G01X13278Y20653D01*
G01X12849Y20509D02*
G01X12849Y20796D01*
G01X12849Y21094D02*
G01X13278Y20930D01*
G01X12849Y21094D02*
G01X13278Y21257D01*
G01X13135Y20992D02*
G01X13135Y21196D01*
G01X12951Y21700D02*
G01X12910Y21680D01*
G01X12869Y21638D01*
G01X12849Y21598D01*
G01X12849Y21515D01*
G01X12869Y21475D01*
G01X12910Y21434D01*
G01X12951Y21413D01*
G01X13012Y21392D01*
G01X13114Y21392D01*
G01X13176Y21413D01*
G01X13217Y21434D01*
G01X13258Y21475D01*
G01X13278Y21515D01*
G01X13278Y21598D01*
G01X13258Y21638D01*
G01X13217Y21680D01*
G01X13176Y21700D01*
G01X13114Y21700D01*
G01X13114Y21598D02*
G01X13114Y21700D01*
G01X1750Y7367D02*
G01X1913Y6938D01*
G01X2076Y7367D02*
G01X1913Y6938D01*
G01X2211Y7367D02*
G01X2211Y6938D01*
G01X2346Y7367D02*
G01X2346Y6938D01*
G01X2346Y7367D02*
G01X2634Y6938D01*
G01X2634Y7367D02*
G01X2634Y6938D01*
G01X3136Y7450D02*
G01X2769Y6796D01*
G01X3271Y7367D02*
G01X3434Y6938D01*
G01X3598Y7367D02*
G01X3434Y6938D01*
G01X4019Y7307D02*
G01X3980Y7348D01*
G01X3917Y7367D01*
G01X3836Y7367D01*
G01X3775Y7348D01*
G01X3734Y7307D01*
G01X3734Y7265D01*
G01X3755Y7225D01*
G01X3775Y7205D01*
G01X3815Y7184D01*
G01X3938Y7142D01*
G01X3980Y7123D01*
G01X4000Y7103D01*
G01X4019Y7061D01*
G01X4019Y7000D01*
G01X3980Y6959D01*
G01X3917Y6938D01*
G01X3836Y6938D01*
G01X3775Y6959D01*
G01X3734Y7000D01*
G01X4442Y7307D02*
G01X4401Y7348D01*
G01X4340Y7367D01*
G01X4257Y7367D01*
G01X4196Y7348D01*
G01X4155Y7307D01*
G01X4155Y7265D01*
G01X4176Y7225D01*
G01X4196Y7205D01*
G01X4236Y7184D01*
G01X4359Y7142D01*
G01X4401Y7123D01*
G01X4421Y7103D01*
G01X4442Y7061D01*
G01X4442Y7000D01*
G01X4401Y6959D01*
G01X4340Y6938D01*
G01X4257Y6938D01*
G01X4196Y6959D01*
G01X4155Y7000D01*
G01X37400Y29250D02*
G01X37564Y28821D01*
G01X37727Y29250D02*
G01X37564Y28821D01*
G01X38148Y29188D02*
G01X38107Y29230D01*
G01X38046Y29250D01*
G01X37964Y29250D01*
G01X37902Y29230D01*
G01X37861Y29188D01*
G01X37861Y29148D01*
G01X37882Y29107D01*
G01X37902Y29086D01*
G01X37943Y29065D01*
G01X38067Y29025D01*
G01X38107Y29005D01*
G01X38127Y28984D01*
G01X38148Y28944D01*
G01X38148Y28882D01*
G01X38107Y28840D01*
G01X38046Y28821D01*
G01X37964Y28821D01*
G01X37902Y28840D01*
G01X37861Y28882D01*
G01X38569Y29188D02*
G01X38529Y29230D01*
G01X38468Y29250D01*
G01X38385Y29250D01*
G01X38325Y29230D01*
G01X38284Y29188D01*
G01X38284Y29148D01*
G01X38304Y29107D01*
G01X38325Y29086D01*
G01X38364Y29065D01*
G01X38488Y29025D01*
G01X38529Y29005D01*
G01X38550Y28984D01*
G01X38569Y28944D01*
G01X38569Y28882D01*
G01X38529Y28840D01*
G01X38468Y28821D01*
G01X38385Y28821D01*
G01X38325Y28840D01*
G01X38284Y28882D01*
G01X38705Y28678D02*
G01X39072Y28678D01*
G01X39207Y29169D02*
G01X39248Y29188D01*
G01X39310Y29250D01*
G01X39310Y28821D01*
G01X38759Y2594D02*
G01X39188Y2759D01*
G01X38759Y2921D02*
G01X39188Y2759D01*
G01X38820Y3344D02*
G01X38779Y3303D01*
G01X38759Y3240D01*
G01X38759Y3159D01*
G01X38779Y3098D01*
G01X38820Y3057D01*
G01X38861Y3057D01*
G01X38902Y3078D01*
G01X38922Y3098D01*
G01X38943Y3138D01*
G01X38984Y3261D01*
G01X39004Y3303D01*
G01X39024Y3323D01*
G01X39065Y3344D01*
G01X39127Y3344D01*
G01X39168Y3303D01*
G01X39188Y3240D01*
G01X39188Y3159D01*
G01X39168Y3098D01*
G01X39127Y3057D01*
G01X38820Y3765D02*
G01X38779Y3723D01*
G01X38759Y3663D01*
G01X38759Y3580D01*
G01X38779Y3519D01*
G01X38820Y3478D01*
G01X38861Y3478D01*
G01X38902Y3498D01*
G01X38922Y3519D01*
G01X38943Y3559D01*
G01X38984Y3682D01*
G01X39004Y3723D01*
G01X39024Y3744D01*
G01X39065Y3765D01*
G01X39127Y3765D01*
G01X39168Y3723D01*
G01X39188Y3663D01*
G01X39188Y3580D01*
G01X39168Y3519D01*
G01X39127Y3478D01*
G01X39331Y3900D02*
G01X39331Y4267D01*
G01X38861Y4423D02*
G01X38840Y4423D01*
G01X38799Y4444D01*
G01X38779Y4465D01*
G01X38759Y4505D01*
G01X38759Y4586D01*
G01X38779Y4628D01*
G01X38799Y4648D01*
G01X38840Y4669D01*
G01X38881Y4669D01*
G01X38922Y4648D01*
G01X38984Y4607D01*
G01X39188Y4403D01*
G01X39188Y4690D01*
G01X14450Y1350D02*
G01X14614Y921D01*
G01X14777Y1350D02*
G01X14614Y921D01*
G01X15198Y1288D02*
G01X15157Y1330D01*
G01X15096Y1350D01*
G01X15014Y1350D01*
G01X14952Y1330D01*
G01X14911Y1288D01*
G01X14911Y1248D01*
G01X14932Y1207D01*
G01X14952Y1186D01*
G01X14993Y1165D01*
G01X15117Y1125D01*
G01X15157Y1105D01*
G01X15177Y1084D01*
G01X15198Y1044D01*
G01X15198Y982D01*
G01X15157Y940D01*
G01X15096Y921D01*
G01X15014Y921D01*
G01X14952Y940D01*
G01X14911Y982D01*
G01X15619Y1288D02*
G01X15578Y1330D01*
G01X15518Y1350D01*
G01X15435Y1350D01*
G01X15375Y1330D01*
G01X15334Y1288D01*
G01X15334Y1248D01*
G01X15353Y1207D01*
G01X15375Y1186D01*
G01X15414Y1165D01*
G01X15538Y1125D01*
G01X15578Y1105D01*
G01X15600Y1084D01*
G01X15619Y1044D01*
G01X15619Y982D01*
G01X15578Y940D01*
G01X15518Y921D01*
G01X15435Y921D01*
G01X15375Y940D01*
G01X15334Y982D01*
G01X15755Y778D02*
G01X16122Y778D01*
G01X16298Y1350D02*
G01X16523Y1350D01*
G01X16401Y1186D01*
G01X16463Y1186D01*
G01X16503Y1165D01*
G01X16523Y1146D01*
G01X16544Y1084D01*
G01X16544Y1044D01*
G01X16523Y982D01*
G01X16482Y940D01*
G01X16422Y921D01*
G01X16360Y921D01*
G01X16298Y940D01*
G01X16278Y961D01*
G01X16257Y1003D01*
G01X10731Y21550D02*
G01X11160Y21713D01*
G01X10731Y21877D02*
G01X11160Y21713D01*
G01X10793Y22298D02*
G01X10752Y22257D01*
G01X10731Y22196D01*
G01X10731Y22115D01*
G01X10752Y22053D01*
G01X10793Y22011D01*
G01X10834Y22011D01*
G01X10875Y22032D01*
G01X10894Y22053D01*
G01X10915Y22094D01*
G01X10956Y22217D01*
G01X10977Y22257D01*
G01X10997Y22278D01*
G01X11038Y22298D01*
G01X11100Y22298D01*
G01X11140Y22257D01*
G01X11160Y22196D01*
G01X11160Y22115D01*
G01X11140Y22053D01*
G01X11100Y22011D01*
G01X10793Y22719D02*
G01X10752Y22678D01*
G01X10731Y22617D01*
G01X10731Y22536D01*
G01X10752Y22475D01*
G01X10793Y22434D01*
G01X10834Y22434D01*
G01X10875Y22453D01*
G01X10894Y22475D01*
G01X10915Y22515D01*
G01X10956Y22638D01*
G01X10977Y22678D01*
G01X10997Y22700D01*
G01X11038Y22719D01*
G01X11100Y22719D01*
G01X11140Y22678D01*
G01X11160Y22617D01*
G01X11160Y22536D01*
G01X11140Y22475D01*
G01X11100Y22434D01*
G01X11303Y22855D02*
G01X11303Y23223D01*
G01X10731Y23563D02*
G01X11018Y23357D01*
G01X11018Y23665D01*
G01X10731Y23563D02*
G01X11160Y23563D01*
G01X3500Y29728D02*
G01X3500Y29423D01*
G01X3519Y29361D01*
G01X3561Y29319D01*
G01X3623Y29300D01*
G01X3663Y29300D01*
G01X3725Y29319D01*
G01X3765Y29361D01*
G01X3786Y29423D01*
G01X3786Y29728D01*
G01X3942Y29627D02*
G01X3942Y29648D01*
G01X3961Y29688D01*
G01X3982Y29709D01*
G01X4023Y29728D01*
G01X4105Y29728D01*
G01X4146Y29709D01*
G01X4167Y29688D01*
G01X4186Y29648D01*
G01X4186Y29607D01*
G01X4167Y29565D01*
G01X4126Y29503D01*
G01X3921Y29300D01*
G01X4207Y29300D01*
G54D25*
G75*
G01X6100Y24600D02*
G02X5500Y24000I-600J0D01*
G01*
G75*
G01X1500Y24000D02*
G02X900Y24600I0J600D01*
G01*
G75*
G01X5500Y29200D02*
G02X6100Y28600I0J-600D01*
G01*
G54D10*
G75*
G01X3960Y20800D02*
G03X3960Y20800I-710J0D01*
G01*
G75*
G01X3234Y9900D02*
G03X3234Y9900I-984J0D01*
G01*
M00*
M02*
