G04 Layer: TopSilkLayer*
G04 EasyEDA v5.9.42, Mon, 25 Mar 2019 10:54:48 GMT*
G04 c4031608a2914fe59fb431af2816202f*
G04 Gerber Generator version 0.2*
G04 Scale: 100 percent, Rotated: No, Reflected: No *
G04 Dimensions in inches *
G04 leading zeros omitted , absolute positions ,2 integer and 4 decimal *
%FSLAX24Y24*%
%MOIN*%
G90*
G70D02*

%ADD10C,0.010000*%
%ADD11C,0.006000*%
%ADD12C,0.008000*%
%ADD19C,0.007870*%
%ADD20C,0.007992*%

%LPD*%
G54D19*
G01X13224Y20440D02*
G01X23289Y20440D01*
G01X23289Y9810D01*
G01X12659Y9810D01*
G01X12659Y19875D01*
G01X13224Y20440D01*
G54D12*
G01X5500Y22600D02*
G01X4500Y22600D01*
G01X4500Y23600D01*
G01X5500Y23600D01*
G01X5500Y22850D01*
G54D20*
G01X5500Y22600D02*
G01X5500Y22850D01*
G54D12*
G01X5500Y20600D02*
G01X4500Y20600D01*
G01X4500Y21600D01*
G01X5500Y21600D01*
G01X5500Y20850D01*
G54D20*
G01X5500Y20600D02*
G01X5500Y20850D01*
G54D10*
G01X1900Y27700D02*
G01X6100Y27700D01*
G01X6100Y26500D01*
G01X1900Y26500D01*
G01X1900Y27700D01*
G01X3000Y27700D02*
G01X3000Y26500D01*
G01X8000Y27350D02*
G01X8000Y26850D01*
G01X6950Y27600D02*
G01X9050Y27600D01*
G01X9050Y27600D02*
G01X9050Y26600D01*
G01X9050Y26600D02*
G01X6950Y26600D01*
G01X6950Y26600D02*
G01X6950Y27600D01*
G01X8000Y25350D02*
G01X8000Y24850D01*
G01X6950Y25600D02*
G01X9050Y25600D01*
G01X9050Y25600D02*
G01X9050Y24600D01*
G01X9050Y24600D02*
G01X6950Y24600D01*
G01X6950Y24600D02*
G01X6950Y25600D01*
G01X8000Y23350D02*
G01X8000Y22850D01*
G01X6950Y23600D02*
G01X9050Y23600D01*
G01X9050Y23600D02*
G01X9050Y22600D01*
G01X9050Y22600D02*
G01X6950Y22600D01*
G01X6950Y22600D02*
G01X6950Y23600D01*
G01X8000Y21350D02*
G01X8000Y20850D01*
G01X6950Y21600D02*
G01X9050Y21600D01*
G01X9050Y21600D02*
G01X9050Y20600D01*
G01X9050Y20600D02*
G01X6950Y20600D01*
G01X6950Y20600D02*
G01X6950Y21600D01*
G01X8000Y19350D02*
G01X8000Y18850D01*
G01X6950Y19600D02*
G01X9050Y19600D01*
G01X9050Y19600D02*
G01X9050Y18600D01*
G01X9050Y18600D02*
G01X6950Y18600D01*
G01X6950Y18600D02*
G01X6950Y19600D01*
G01X8000Y17350D02*
G01X8000Y16850D01*
G01X6950Y17600D02*
G01X9050Y17600D01*
G01X9050Y17600D02*
G01X9050Y16600D01*
G01X9050Y16600D02*
G01X6950Y16600D01*
G01X6950Y16600D02*
G01X6950Y17600D01*
G01X8000Y15350D02*
G01X8000Y14850D01*
G01X6950Y15600D02*
G01X9050Y15600D01*
G01X9050Y15600D02*
G01X9050Y14600D01*
G01X9050Y14600D02*
G01X6950Y14600D01*
G01X6950Y14600D02*
G01X6950Y15600D01*
G01X8000Y13350D02*
G01X8000Y12850D01*
G01X6950Y13600D02*
G01X9050Y13600D01*
G01X9050Y13600D02*
G01X9050Y12600D01*
G01X9050Y12600D02*
G01X6950Y12600D01*
G01X6950Y12600D02*
G01X6950Y13600D01*
G01X8000Y11350D02*
G01X8000Y10850D01*
G01X6950Y11600D02*
G01X9050Y11600D01*
G01X9050Y11600D02*
G01X9050Y10600D01*
G01X9050Y10600D02*
G01X6950Y10600D01*
G01X6950Y10600D02*
G01X6950Y11600D01*
G01X8000Y9350D02*
G01X8000Y8850D01*
G01X6950Y9600D02*
G01X9050Y9600D01*
G01X9050Y9600D02*
G01X9050Y8600D01*
G01X9050Y8600D02*
G01X6950Y8600D01*
G01X6950Y8600D02*
G01X6950Y9600D01*
G01X8000Y7350D02*
G01X8000Y6850D01*
G01X6950Y7600D02*
G01X9050Y7600D01*
G01X9050Y7600D02*
G01X9050Y6600D01*
G01X9050Y6600D02*
G01X6950Y6600D01*
G01X6950Y6600D02*
G01X6950Y7600D01*
G01X8000Y5350D02*
G01X8000Y4850D01*
G01X6950Y5600D02*
G01X9050Y5600D01*
G01X9050Y5600D02*
G01X9050Y4600D01*
G01X9050Y4600D02*
G01X6950Y4600D01*
G01X6950Y4600D02*
G01X6950Y5600D01*
G01X8000Y3350D02*
G01X8000Y2850D01*
G01X6950Y3600D02*
G01X9050Y3600D01*
G01X9050Y3600D02*
G01X9050Y2600D01*
G01X9050Y2600D02*
G01X6950Y2600D01*
G01X6950Y2600D02*
G01X6950Y3600D01*
G54D12*
G01X31000Y25100D02*
G01X29000Y25100D01*
G01X29000Y5100D01*
G01X31000Y5100D01*
G01X31000Y25100D01*
G01X12000Y4100D02*
G01X12000Y2100D01*
G01X28000Y2100D01*
G01X28000Y4100D01*
G01X12000Y4100D01*
G01X12000Y28100D02*
G01X12000Y26100D01*
G01X28000Y26100D01*
G01X28000Y28100D01*
G01X12000Y28100D01*
G54D11*
G01X17900Y21796D02*
G01X17900Y21367D01*
G01X18342Y21694D02*
G01X18321Y21734D01*
G01X18280Y21776D01*
G01X18239Y21796D01*
G01X18157Y21796D01*
G01X18117Y21776D01*
G01X18076Y21734D01*
G01X18055Y21694D01*
G01X18035Y21632D01*
G01X18035Y21530D01*
G01X18055Y21469D01*
G01X18076Y21428D01*
G01X18117Y21388D01*
G01X18157Y21367D01*
G01X18239Y21367D01*
G01X18280Y21388D01*
G01X18321Y21428D01*
G01X18342Y21469D01*
G01X18477Y21715D02*
G01X18518Y21734D01*
G01X18578Y21796D01*
G01X18578Y21367D01*
G01X5000Y24128D02*
G01X5164Y23700D01*
G01X5327Y24128D02*
G01X5164Y23700D01*
G01X5748Y24067D02*
G01X5707Y24109D01*
G01X5646Y24128D01*
G01X5564Y24128D01*
G01X5502Y24109D01*
G01X5461Y24067D01*
G01X5461Y24027D01*
G01X5482Y23986D01*
G01X5502Y23965D01*
G01X5543Y23944D01*
G01X5667Y23903D01*
G01X5707Y23884D01*
G01X5727Y23863D01*
G01X5748Y23823D01*
G01X5748Y23761D01*
G01X5707Y23719D01*
G01X5646Y23700D01*
G01X5564Y23700D01*
G01X5502Y23719D01*
G01X5461Y23761D01*
G01X6169Y24067D02*
G01X6128Y24109D01*
G01X6068Y24128D01*
G01X5985Y24128D01*
G01X5925Y24109D01*
G01X5884Y24067D01*
G01X5884Y24027D01*
G01X5903Y23986D01*
G01X5925Y23965D01*
G01X5964Y23944D01*
G01X6088Y23903D01*
G01X6128Y23884D01*
G01X6150Y23863D01*
G01X6169Y23823D01*
G01X6169Y23761D01*
G01X6128Y23719D01*
G01X6068Y23700D01*
G01X5985Y23700D01*
G01X5925Y23719D01*
G01X5884Y23761D01*
G01X5000Y22128D02*
G01X5164Y21700D01*
G01X5327Y22128D02*
G01X5164Y21700D01*
G01X5461Y22128D02*
G01X5461Y21700D01*
G01X5461Y22128D02*
G01X5605Y22128D01*
G01X5667Y22109D01*
G01X5707Y22067D01*
G01X5727Y22027D01*
G01X5748Y21965D01*
G01X5748Y21863D01*
G01X5727Y21802D01*
G01X5707Y21761D01*
G01X5667Y21719D01*
G01X5605Y21700D01*
G01X5461Y21700D01*
G01X5884Y22128D02*
G01X5884Y21700D01*
G01X5884Y22128D02*
G01X6027Y22128D01*
G01X6088Y22109D01*
G01X6128Y22067D01*
G01X6150Y22027D01*
G01X6169Y21965D01*
G01X6169Y21863D01*
G01X6150Y21802D01*
G01X6128Y21761D01*
G01X6088Y21719D01*
G01X6027Y21700D01*
G01X5884Y21700D01*
G01X4205Y28228D02*
G01X4205Y27902D01*
G01X4184Y27840D01*
G01X4163Y27819D01*
G01X4123Y27800D01*
G01X4082Y27800D01*
G01X4040Y27819D01*
G01X4019Y27840D01*
G01X4000Y27902D01*
G01X4000Y27942D01*
G01X4482Y28228D02*
G01X4482Y27800D01*
G01X4340Y28228D02*
G01X4626Y28228D01*
G01X4925Y28228D02*
G01X4760Y27800D01*
G01X4925Y28228D02*
G01X5088Y27800D01*
G01X4822Y27942D02*
G01X5027Y27942D01*
G01X5530Y28127D02*
G01X5510Y28167D01*
G01X5468Y28209D01*
G01X5427Y28228D01*
G01X5346Y28228D01*
G01X5305Y28209D01*
G01X5264Y28167D01*
G01X5243Y28127D01*
G01X5222Y28065D01*
G01X5222Y27963D01*
G01X5243Y27902D01*
G01X5264Y27861D01*
G01X5305Y27819D01*
G01X5346Y27800D01*
G01X5427Y27800D01*
G01X5468Y27819D01*
G01X5510Y27861D01*
G01X5530Y27902D01*
G01X5530Y27963D01*
G01X5427Y27963D02*
G01X5530Y27963D01*
G01X8306Y28027D02*
G01X8285Y28067D01*
G01X8244Y28109D01*
G01X8205Y28128D01*
G01X8122Y28128D01*
G01X8081Y28109D01*
G01X8040Y28067D01*
G01X8019Y28027D01*
G01X8000Y27965D01*
G01X8000Y27863D01*
G01X8019Y27802D01*
G01X8040Y27761D01*
G01X8081Y27719D01*
G01X8122Y27700D01*
G01X8205Y27700D01*
G01X8244Y27719D01*
G01X8285Y27761D01*
G01X8306Y27802D01*
G01X8442Y28048D02*
G01X8482Y28067D01*
G01X8543Y28128D01*
G01X8543Y27700D01*
G01X8306Y26027D02*
G01X8285Y26067D01*
G01X8244Y26109D01*
G01X8205Y26128D01*
G01X8122Y26128D01*
G01X8081Y26109D01*
G01X8040Y26067D01*
G01X8019Y26027D01*
G01X8000Y25965D01*
G01X8000Y25863D01*
G01X8019Y25802D01*
G01X8040Y25761D01*
G01X8081Y25719D01*
G01X8122Y25700D01*
G01X8205Y25700D01*
G01X8244Y25719D01*
G01X8285Y25761D01*
G01X8306Y25802D01*
G01X8461Y26027D02*
G01X8461Y26048D01*
G01X8482Y26088D01*
G01X8502Y26109D01*
G01X8543Y26128D01*
G01X8626Y26128D01*
G01X8667Y26109D01*
G01X8686Y26088D01*
G01X8707Y26048D01*
G01X8707Y26007D01*
G01X8686Y25965D01*
G01X8646Y25903D01*
G01X8442Y25700D01*
G01X8727Y25700D01*
G01X8306Y24027D02*
G01X8285Y24067D01*
G01X8244Y24109D01*
G01X8205Y24128D01*
G01X8122Y24128D01*
G01X8081Y24109D01*
G01X8040Y24067D01*
G01X8019Y24027D01*
G01X8000Y23965D01*
G01X8000Y23863D01*
G01X8019Y23802D01*
G01X8040Y23761D01*
G01X8081Y23719D01*
G01X8122Y23700D01*
G01X8205Y23700D01*
G01X8244Y23719D01*
G01X8285Y23761D01*
G01X8306Y23802D01*
G01X8482Y24128D02*
G01X8707Y24128D01*
G01X8585Y23965D01*
G01X8646Y23965D01*
G01X8686Y23944D01*
G01X8707Y23925D01*
G01X8727Y23863D01*
G01X8727Y23823D01*
G01X8707Y23761D01*
G01X8667Y23719D01*
G01X8605Y23700D01*
G01X8543Y23700D01*
G01X8482Y23719D01*
G01X8461Y23740D01*
G01X8442Y23782D01*
G01X8306Y22027D02*
G01X8285Y22067D01*
G01X8244Y22109D01*
G01X8205Y22128D01*
G01X8122Y22128D01*
G01X8081Y22109D01*
G01X8040Y22067D01*
G01X8019Y22027D01*
G01X8000Y21965D01*
G01X8000Y21863D01*
G01X8019Y21802D01*
G01X8040Y21761D01*
G01X8081Y21719D01*
G01X8122Y21700D01*
G01X8205Y21700D01*
G01X8244Y21719D01*
G01X8285Y21761D01*
G01X8306Y21802D01*
G01X8646Y22128D02*
G01X8442Y21842D01*
G01X8748Y21842D01*
G01X8646Y22128D02*
G01X8646Y21700D01*
G01X8306Y20027D02*
G01X8285Y20067D01*
G01X8244Y20109D01*
G01X8205Y20128D01*
G01X8122Y20128D01*
G01X8081Y20109D01*
G01X8040Y20067D01*
G01X8019Y20027D01*
G01X8000Y19965D01*
G01X8000Y19863D01*
G01X8019Y19802D01*
G01X8040Y19761D01*
G01X8081Y19719D01*
G01X8122Y19700D01*
G01X8205Y19700D01*
G01X8244Y19719D01*
G01X8285Y19761D01*
G01X8306Y19802D01*
G01X8686Y20128D02*
G01X8482Y20128D01*
G01X8461Y19944D01*
G01X8482Y19965D01*
G01X8543Y19986D01*
G01X8605Y19986D01*
G01X8667Y19965D01*
G01X8707Y19925D01*
G01X8727Y19863D01*
G01X8727Y19823D01*
G01X8707Y19761D01*
G01X8667Y19719D01*
G01X8605Y19700D01*
G01X8543Y19700D01*
G01X8482Y19719D01*
G01X8461Y19740D01*
G01X8442Y19782D01*
G01X8306Y18027D02*
G01X8285Y18067D01*
G01X8244Y18109D01*
G01X8205Y18128D01*
G01X8122Y18128D01*
G01X8081Y18109D01*
G01X8040Y18067D01*
G01X8019Y18027D01*
G01X8000Y17965D01*
G01X8000Y17863D01*
G01X8019Y17802D01*
G01X8040Y17761D01*
G01X8081Y17719D01*
G01X8122Y17700D01*
G01X8205Y17700D01*
G01X8244Y17719D01*
G01X8285Y17761D01*
G01X8306Y17802D01*
G01X8686Y18067D02*
G01X8667Y18109D01*
G01X8605Y18128D01*
G01X8564Y18128D01*
G01X8502Y18109D01*
G01X8461Y18048D01*
G01X8442Y17944D01*
G01X8442Y17842D01*
G01X8461Y17761D01*
G01X8502Y17719D01*
G01X8564Y17700D01*
G01X8585Y17700D01*
G01X8646Y17719D01*
G01X8686Y17761D01*
G01X8707Y17823D01*
G01X8707Y17842D01*
G01X8686Y17903D01*
G01X8646Y17944D01*
G01X8585Y17965D01*
G01X8564Y17965D01*
G01X8502Y17944D01*
G01X8461Y17903D01*
G01X8442Y17842D01*
G01X8306Y16026D02*
G01X8285Y16067D01*
G01X8244Y16109D01*
G01X8205Y16128D01*
G01X8122Y16128D01*
G01X8081Y16109D01*
G01X8040Y16067D01*
G01X8019Y16026D01*
G01X8000Y15965D01*
G01X8000Y15863D01*
G01X8019Y15801D01*
G01X8040Y15761D01*
G01X8081Y15719D01*
G01X8122Y15700D01*
G01X8205Y15700D01*
G01X8244Y15719D01*
G01X8285Y15761D01*
G01X8306Y15801D01*
G01X8727Y16128D02*
G01X8523Y15700D01*
G01X8442Y16128D02*
G01X8727Y16128D01*
G01X8306Y14026D02*
G01X8285Y14067D01*
G01X8244Y14109D01*
G01X8205Y14128D01*
G01X8122Y14128D01*
G01X8081Y14109D01*
G01X8040Y14067D01*
G01X8019Y14026D01*
G01X8000Y13965D01*
G01X8000Y13863D01*
G01X8019Y13801D01*
G01X8040Y13761D01*
G01X8081Y13719D01*
G01X8122Y13700D01*
G01X8205Y13700D01*
G01X8244Y13719D01*
G01X8285Y13761D01*
G01X8306Y13801D01*
G01X8543Y14128D02*
G01X8482Y14109D01*
G01X8461Y14067D01*
G01X8461Y14026D01*
G01X8482Y13986D01*
G01X8523Y13965D01*
G01X8605Y13944D01*
G01X8667Y13925D01*
G01X8707Y13884D01*
G01X8727Y13842D01*
G01X8727Y13782D01*
G01X8707Y13740D01*
G01X8686Y13719D01*
G01X8626Y13700D01*
G01X8543Y13700D01*
G01X8482Y13719D01*
G01X8461Y13740D01*
G01X8442Y13782D01*
G01X8442Y13842D01*
G01X8461Y13884D01*
G01X8502Y13925D01*
G01X8564Y13944D01*
G01X8646Y13965D01*
G01X8686Y13986D01*
G01X8707Y14026D01*
G01X8707Y14067D01*
G01X8686Y14109D01*
G01X8626Y14128D01*
G01X8543Y14128D01*
G01X8306Y12026D02*
G01X8285Y12067D01*
G01X8244Y12109D01*
G01X8205Y12128D01*
G01X8122Y12128D01*
G01X8081Y12109D01*
G01X8040Y12067D01*
G01X8019Y12026D01*
G01X8000Y11965D01*
G01X8000Y11863D01*
G01X8019Y11801D01*
G01X8040Y11761D01*
G01X8081Y11719D01*
G01X8122Y11700D01*
G01X8205Y11700D01*
G01X8244Y11719D01*
G01X8285Y11761D01*
G01X8306Y11801D01*
G01X8707Y11986D02*
G01X8686Y11925D01*
G01X8646Y11884D01*
G01X8585Y11863D01*
G01X8564Y11863D01*
G01X8502Y11884D01*
G01X8461Y11925D01*
G01X8442Y11986D01*
G01X8442Y12007D01*
G01X8461Y12067D01*
G01X8502Y12109D01*
G01X8564Y12128D01*
G01X8585Y12128D01*
G01X8646Y12109D01*
G01X8686Y12067D01*
G01X8707Y11986D01*
G01X8707Y11884D01*
G01X8686Y11782D01*
G01X8646Y11719D01*
G01X8585Y11700D01*
G01X8543Y11700D01*
G01X8482Y11719D01*
G01X8461Y11761D01*
G01X8306Y10026D02*
G01X8285Y10067D01*
G01X8244Y10109D01*
G01X8205Y10128D01*
G01X8122Y10128D01*
G01X8081Y10109D01*
G01X8040Y10067D01*
G01X8019Y10026D01*
G01X8000Y9965D01*
G01X8000Y9863D01*
G01X8019Y9801D01*
G01X8040Y9761D01*
G01X8081Y9719D01*
G01X8122Y9700D01*
G01X8205Y9700D01*
G01X8244Y9719D01*
G01X8285Y9761D01*
G01X8306Y9801D01*
G01X8442Y10048D02*
G01X8482Y10067D01*
G01X8543Y10128D01*
G01X8543Y9700D01*
G01X8802Y10128D02*
G01X8739Y10109D01*
G01X8700Y10048D01*
G01X8678Y9944D01*
G01X8678Y9884D01*
G01X8700Y9782D01*
G01X8739Y9719D01*
G01X8802Y9700D01*
G01X8843Y9700D01*
G01X8903Y9719D01*
G01X8944Y9782D01*
G01X8964Y9884D01*
G01X8964Y9944D01*
G01X8944Y10048D01*
G01X8903Y10109D01*
G01X8843Y10128D01*
G01X8802Y10128D01*
G01X8306Y8026D02*
G01X8285Y8067D01*
G01X8244Y8109D01*
G01X8205Y8128D01*
G01X8122Y8128D01*
G01X8081Y8109D01*
G01X8040Y8067D01*
G01X8019Y8026D01*
G01X8000Y7965D01*
G01X8000Y7863D01*
G01X8019Y7801D01*
G01X8040Y7761D01*
G01X8081Y7719D01*
G01X8122Y7700D01*
G01X8205Y7700D01*
G01X8244Y7719D01*
G01X8285Y7761D01*
G01X8306Y7801D01*
G01X8442Y8048D02*
G01X8482Y8067D01*
G01X8543Y8128D01*
G01X8543Y7700D01*
G01X8678Y8048D02*
G01X8719Y8067D01*
G01X8781Y8128D01*
G01X8781Y7700D01*
G01X8306Y6026D02*
G01X8285Y6067D01*
G01X8244Y6109D01*
G01X8205Y6128D01*
G01X8122Y6128D01*
G01X8081Y6109D01*
G01X8040Y6067D01*
G01X8019Y6026D01*
G01X8000Y5965D01*
G01X8000Y5863D01*
G01X8019Y5801D01*
G01X8040Y5761D01*
G01X8081Y5719D01*
G01X8122Y5700D01*
G01X8205Y5700D01*
G01X8244Y5719D01*
G01X8285Y5761D01*
G01X8306Y5801D01*
G01X8442Y6048D02*
G01X8482Y6067D01*
G01X8543Y6128D01*
G01X8543Y5700D01*
G01X8700Y6026D02*
G01X8700Y6048D01*
G01X8719Y6088D01*
G01X8739Y6109D01*
G01X8781Y6128D01*
G01X8863Y6128D01*
G01X8903Y6109D01*
G01X8925Y6088D01*
G01X8944Y6048D01*
G01X8944Y6007D01*
G01X8925Y5965D01*
G01X8884Y5903D01*
G01X8678Y5700D01*
G01X8964Y5700D01*
G01X8306Y4026D02*
G01X8285Y4067D01*
G01X8244Y4109D01*
G01X8205Y4128D01*
G01X8122Y4128D01*
G01X8081Y4109D01*
G01X8040Y4067D01*
G01X8019Y4026D01*
G01X8000Y3965D01*
G01X8000Y3863D01*
G01X8019Y3801D01*
G01X8040Y3761D01*
G01X8081Y3719D01*
G01X8122Y3700D01*
G01X8205Y3700D01*
G01X8244Y3719D01*
G01X8285Y3761D01*
G01X8306Y3801D01*
G01X8442Y4048D02*
G01X8482Y4067D01*
G01X8543Y4128D01*
G01X8543Y3700D01*
G01X8719Y4128D02*
G01X8944Y4128D01*
G01X8822Y3965D01*
G01X8884Y3965D01*
G01X8925Y3944D01*
G01X8944Y3925D01*
G01X8964Y3863D01*
G01X8964Y3823D01*
G01X8944Y3761D01*
G01X8903Y3719D01*
G01X8843Y3700D01*
G01X8781Y3700D01*
G01X8719Y3719D01*
G01X8700Y3740D01*
G01X8678Y3782D01*
G01X31039Y15100D02*
G01X31468Y15100D01*
G01X31039Y15100D02*
G01X31039Y15284D01*
G01X31059Y15344D01*
G01X31078Y15365D01*
G01X31119Y15386D01*
G01X31181Y15386D01*
G01X31222Y15365D01*
G01X31243Y15344D01*
G01X31264Y15284D01*
G01X31264Y15100D01*
G01X31119Y15521D02*
G01X31100Y15561D01*
G01X31039Y15623D01*
G01X31468Y15623D01*
G01X22000Y4628D02*
G01X22000Y4200D01*
G01X22000Y4628D02*
G01X22184Y4628D01*
G01X22244Y4609D01*
G01X22265Y4588D01*
G01X22285Y4548D01*
G01X22285Y4486D01*
G01X22265Y4444D01*
G01X22244Y4425D01*
G01X22184Y4403D01*
G01X22000Y4403D01*
G01X22442Y4526D02*
G01X22442Y4548D01*
G01X22461Y4588D01*
G01X22482Y4609D01*
G01X22523Y4628D01*
G01X22605Y4628D01*
G01X22646Y4609D01*
G01X22667Y4588D01*
G01X22686Y4548D01*
G01X22686Y4507D01*
G01X22667Y4465D01*
G01X22626Y4403D01*
G01X22421Y4200D01*
G01X22707Y4200D01*
G01X20000Y28628D02*
G01X20000Y28200D01*
G01X20000Y28628D02*
G01X20184Y28628D01*
G01X20244Y28609D01*
G01X20265Y28588D01*
G01X20285Y28548D01*
G01X20285Y28486D01*
G01X20265Y28444D01*
G01X20244Y28425D01*
G01X20184Y28403D01*
G01X20000Y28403D01*
G01X20461Y28628D02*
G01X20686Y28628D01*
G01X20564Y28465D01*
G01X20626Y28465D01*
G01X20667Y28444D01*
G01X20686Y28425D01*
G01X20707Y28363D01*
G01X20707Y28323D01*
G01X20686Y28261D01*
G01X20646Y28219D01*
G01X20585Y28200D01*
G01X20523Y28200D01*
G01X20461Y28219D01*
G01X20442Y28240D01*
G01X20421Y28282D01*
M00*
M02*
