G04 Layer: BottomSolderMaskLayer*
G04 EasyEDA v5.9.42, Mon, 25 Mar 2019 10:54:48 GMT*
G04 c4031608a2914fe59fb431af2816202f*
G04 Gerber Generator version 0.2*
G04 Scale: 100 percent, Rotated: No, Reflected: No *
G04 Dimensions in inches *
G04 leading zeros omitted , absolute positions ,2 integer and 4 decimal *
%FSLAX24Y24*%
%MOIN*%
G90*
G70D02*

%ADD21R,0.070000X0.070000*%
%ADD22R,0.074929X0.074929*%
%ADD23C,0.074929*%
%ADD24C,0.088000*%
%ADD25C,0.070000*%

%LPD*%
G54D21*
G01X5000Y23100D03*
G01X5000Y21100D03*
G54D22*
G01X2500Y27100D03*
G54D23*
G01X3500Y27100D03*
G01X4500Y27100D03*
G01X5500Y27100D03*
G54D24*
G01X7450Y27100D03*
G01X8550Y27100D03*
G01X7450Y25100D03*
G01X8550Y25100D03*
G01X7450Y23100D03*
G01X8550Y23100D03*
G01X7450Y21100D03*
G01X8550Y21100D03*
G01X7450Y19100D03*
G01X8550Y19100D03*
G01X7450Y17100D03*
G01X8550Y17100D03*
G01X7450Y15100D03*
G01X8550Y15100D03*
G01X7450Y13100D03*
G01X8550Y13100D03*
G01X7450Y11100D03*
G01X8550Y11100D03*
G01X7450Y9100D03*
G01X8550Y9100D03*
G01X7450Y7100D03*
G01X8550Y7100D03*
G01X7450Y5100D03*
G01X8550Y5100D03*
G01X7450Y3100D03*
G01X8550Y3100D03*
G54D21*
G01X29500Y24600D03*
G54D25*
G01X30500Y24600D03*
G01X29500Y23600D03*
G01X30500Y23600D03*
G01X29500Y22600D03*
G01X30500Y22600D03*
G01X29500Y21600D03*
G01X30500Y21600D03*
G01X29500Y20600D03*
G01X30500Y20600D03*
G01X29500Y19600D03*
G01X30500Y19600D03*
G01X29500Y18600D03*
G01X30500Y18600D03*
G01X29500Y17600D03*
G01X30500Y17600D03*
G01X29500Y16600D03*
G01X30500Y16600D03*
G01X29500Y15600D03*
G01X30500Y15600D03*
G01X29500Y14600D03*
G01X30500Y14600D03*
G01X29500Y13600D03*
G01X30500Y13600D03*
G01X29500Y12600D03*
G01X30500Y12600D03*
G01X29500Y11600D03*
G01X30500Y11600D03*
G01X29500Y10600D03*
G01X30500Y10600D03*
G01X29500Y9600D03*
G01X30500Y9600D03*
G01X29500Y8600D03*
G01X30500Y8600D03*
G01X29500Y7600D03*
G01X30500Y7600D03*
G01X29500Y6600D03*
G01X30500Y6600D03*
G01X29500Y5600D03*
G01X30500Y5600D03*
G54D21*
G01X12500Y2600D03*
G54D25*
G01X12500Y3600D03*
G01X13500Y2600D03*
G01X13500Y3600D03*
G01X14500Y2600D03*
G01X14500Y3600D03*
G01X15500Y2600D03*
G01X15500Y3600D03*
G01X16500Y2600D03*
G01X16500Y3600D03*
G01X17500Y2600D03*
G01X17500Y3600D03*
G01X18500Y2600D03*
G01X18500Y3600D03*
G01X19500Y2600D03*
G01X19500Y3600D03*
G01X20500Y2600D03*
G01X20500Y3600D03*
G01X21500Y2600D03*
G01X21500Y3600D03*
G01X22500Y2600D03*
G01X22500Y3600D03*
G01X23500Y2600D03*
G01X23500Y3600D03*
G01X24500Y2600D03*
G01X24500Y3600D03*
G01X25500Y2600D03*
G01X25500Y3600D03*
G01X26500Y2600D03*
G01X26500Y3600D03*
G01X27500Y2600D03*
G01X27500Y3600D03*
G54D21*
G01X12500Y26600D03*
G54D25*
G01X12500Y27600D03*
G01X13500Y26600D03*
G01X13500Y27600D03*
G01X14500Y26600D03*
G01X14500Y27600D03*
G01X15500Y26600D03*
G01X15500Y27600D03*
G01X16500Y26600D03*
G01X16500Y27600D03*
G01X17500Y26600D03*
G01X17500Y27600D03*
G01X18500Y26600D03*
G01X18500Y27600D03*
G01X19500Y26600D03*
G01X19500Y27600D03*
G01X20500Y26600D03*
G01X20500Y27600D03*
G01X21500Y26600D03*
G01X21500Y27600D03*
G01X22500Y26600D03*
G01X22500Y27600D03*
G01X23500Y26600D03*
G01X23500Y27600D03*
G01X24500Y26600D03*
G01X24500Y27600D03*
G01X25500Y26600D03*
G01X25500Y27600D03*
G01X26500Y26600D03*
G01X26500Y27600D03*
G01X27500Y26600D03*
G01X27500Y27600D03*
M00*
M02*
